<?xml version="1.0" encoding="UTF-8"?>
<svg version="1.1" xmlns="http://www.w3.org/2000/svg" width="1536" height="1024">
<path d="M0 0 C506.88 0 1013.76 0 1536 0 C1536 337.92 1536 675.84 1536 1024 C1029.12 1024 522.24 1024 0 1024 C0 686.08 0 348.16 0 0 Z " fill="#02182D" transform="translate(0,0)"/>
<path d="M0 0 C0.80824219 0.11085937 1.61648438 0.22171875 2.44921875 0.3359375 C3.37154297 0.47902344 3.37154297 0.47902344 4.3125 0.625 C4.3125 1.615 4.3125 2.605 4.3125 3.625 C4.9725 3.625 5.6325 3.625 6.3125 3.625 C7.97916667 6.95833333 9.64583333 10.29166667 11.3125 13.625 C11.9725 12.635 12.6325 11.645 13.3125 10.625 C13.291875 11.594375 13.27125 12.56375 13.25 13.5625 C12.95631501 16.49965895 12.95631501 16.49965895 14.3125 17.625 C14.22286938 19.31641656 14.06672324 21.00459602 13.875 22.6875 C13.77316406 23.60660156 13.67132812 24.52570313 13.56640625 25.47265625 C13.48261719 26.18292969 13.39882812 26.89320313 13.3125 27.625 C13.9725 27.625 14.6325 27.625 15.3125 27.625 C14.53677283 33.05509016 13.07234736 35.18954049 8.6875 38.5625 C7.24127014 39.60040944 5.7866148 40.62709101 4.3125 41.625 C3.9825 40.635 3.6525 39.645 3.3125 38.625 C2.44625 39.099375 1.58 39.57375 0.6875 40.0625 C-2.54137374 41.55734895 -5.17783826 42.20718313 -8.6875 42.625 C-8.6875 40.975 -8.6875 39.325 -8.6875 37.625 C-10.9975 37.625 -13.3075 37.625 -15.6875 37.625 C-17.1725 34.16 -17.1725 34.16 -18.6875 30.625 C-19.6775 30.955 -20.6675 31.285 -21.6875 31.625 C-23.92436747 25.47361447 -24.57283098 19.13646653 -23.6875 12.625 C-22.2265625 10.953125 -22.2265625 10.953125 -20.6875 9.625 C-20.2234375 8.14 -20.2234375 8.14 -19.75 6.625 C-18.57493119 3.30715865 -17.8133065 2.18790325 -14.6875 0.625 C-12.625 0.9375 -12.625 0.9375 -10.6875 1.625 C-6.3617819 1.625 -4.53422634 -0.65713425 0 0 Z " fill="#64543E" transform="translate(1228.6875,131.375)"/>
<path d="M0 0 C4.98822437 2.57386577 10.11326149 6.5913496 12 12 C12.9587262 18.34742866 12.26687241 23.01198332 8.4765625 28.2421875 C4.99641873 32.3852158 2.05886411 35.11672812 -3.5 35.9375 C-8.25056353 36.19213657 -11.8835054 35.70292669 -15.69921875 32.6328125 C-17.28833066 31.14371463 -18.72970182 29.77030916 -20 28 C-20 27.01 -20 26.02 -20 25 C-20.66 25 -21.32 25 -22 25 C-23.22204139 12.11764706 -23.22204139 12.11764706 -20.2890625 7.03515625 C-14.12001793 0.16457773 -9.24535876 -1.39360187 0 0 Z " fill="#F2D79E" transform="translate(185,580)"/>
<path d="M0 0 C1.53202706 0.25195908 3.05257128 0.57596777 4.5625 0.9375 C5.38878906 1.13214844 6.21507812 1.32679688 7.06640625 1.52734375 C7.70449219 1.68332031 8.34257812 1.83929687 9 2 C9 2.66 9 3.32 9 4 C9.99 4 10.98 4 12 4 C12.495 5.485 12.495 5.485 13 7 C13.66 6.34 14.32 5.68 15 5 C15.67408308 6.26691507 16.33900497 7.53870749 17 8.8125 C17.37125 9.52019531 17.7425 10.22789062 18.125 10.95703125 C19 13 19 13 19 16 C19.66 16 20.32 16 21 16 C21.495 16.99 21.495 16.99 22 18 C22.66 17.67 23.32 17.34 24 17 C27.3201354 29.53943994 27.3201354 29.53943994 26 35 C24.01497995 37.77679771 21.60836253 39.8218267 19 42 C17.700625 43.36125 17.700625 43.36125 16.375 44.75 C12.93863211 48.00550642 9.66896257 50.12456952 5 51 C4.0925 51.185625 3.185 51.37125 2.25 51.5625 C1.5075 51.706875 0.765 51.85125 0 52 C-0.33 51.34 -0.66 50.68 -1 50 C-3.99536737 48.86382617 -5.97878489 49.02889514 -9 50 C-9.33 49.01 -9.66 48.02 -10 47 C-10.804375 46.71125 -11.60875 46.4225 -12.4375 46.125 C-15 45 -15 45 -16.3125 42.375 C-16.539375 41.59125 -16.76625 40.8075 -17 40 C-17.66 40.99 -18.32 41.98 -19 43 C-19 40.69 -19 38.38 -19 36 C-19.66 35.67 -20.32 35.34 -21 35 C-21 33.68 -21 32.36 -21 31 C-22.32 31 -23.64 31 -25 31 C-25.33 31 -25.66 31 -26 31 C-26.33 28.69 -26.66 26.38 -27 24 C-27.66 24.33 -28.32 24.66 -29 25 C-27.60125998 19.91367266 -25.47245805 15.01922631 -22 11 C-19.8984375 10.38671875 -19.8984375 10.38671875 -18 10 C-17.29848848 8.6846659 -16.63474075 7.34882408 -16 6 C-13.00824613 3.20769639 -12.29396797 3 -8 3 C-6.65863633 2.34964186 -5.32467746 1.6837045 -4 1 C-3.01 1 -2.02 1 -1 1 C-0.67 0.67 -0.34 0.34 0 0 Z M-17 18 C-17.14221065 20.60245498 -17.18802932 23.09117684 -17.125 25.6875 C-17.11597656 26.38939453 -17.10695312 27.09128906 -17.09765625 27.81445312 C-17.07413704 29.54311525 -17.03826713 31.27160145 -17 33 C-16.34 33 -15.68 33 -15 33 C-14.88527344 33.59425781 -14.77054688 34.18851563 -14.65234375 34.80078125 C-13.53122412 38.5803642 -11.26172282 40.85620637 -8 43 C-3.14576077 44.45307819 0.87958517 44.29877729 5.75 43 C10.85810408 39.85655134 14.69164501 35.58202207 17 30 C17.79154102 25.0257896 17.79144504 20.46841756 14.9375 16.1875 C13.55111784 14.51978559 13.55111784 14.51978559 12 13 C11.5153125 12.49210938 11.030625 11.98421875 10.53125 11.4609375 C6.14340613 7.61081959 1.6675014 7.14867623 -4.05078125 7.37109375 C-10.14225423 8.67007011 -13.6703847 13.00557706 -17 18 Z " fill="#5F533E" transform="translate(180,572)"/>
<path d="M0 0 C2.60305516 1.99702236 3.58478 4.34383013 4.76171875 7.3515625 C5.42171875 8.0115625 6.08171875 8.6715625 6.76171875 9.3515625 C7.48785422 13.2964331 7.94577149 17.62894396 5.59375 21.05078125 C2.26706105 23.89856382 -1.77494849 26.3515625 -6.23828125 26.3515625 C-8.24040354 26.67190207 -10.2406782 27.00415327 -12.23828125 27.3515625 C-12.32078125 26.5678125 -12.40328125 25.7840625 -12.48828125 24.9765625 C-12.73578125 24.1103125 -12.98328125 23.2440625 -13.23828125 22.3515625 C-13.85703125 22.0834375 -14.47578125 21.8153125 -15.11328125 21.5390625 C-18.14897744 19.84264404 -18.69573507 17.73308134 -19.765625 14.51171875 C-20.69674475 10.25627063 -20.05461914 6.78987212 -17.92578125 3.0390625 C-16.07168626 1.18496751 -14.66907316 0.32387926 -12.23828125 -0.6484375 C-10.87703125 -1.3290625 -10.87703125 -1.3290625 -9.48828125 -2.0234375 C-5.40768697 -2.80816717 -3.55097572 -1.9885464 0 0 Z " fill="#4E4940" transform="translate(938.23828125,256.6484375)"/>
<path d="M0 0 C0.33 0.66 0.66 1.32 1 2 C1.66 2 2.32 2 3 2 C6.61398697 7.30804337 8.07646026 11.54123843 7 18 C6.34 18.99 5.68 19.98 5 21 C4.01 21 3.02 21 2 21 C1.34 22.32 0.68 23.64 0 25 C-6.02734239 25.36902096 -10.63991851 25.15298911 -16 22 C-18.67615091 19.25694532 -19.9121028 17.39097325 -20.15625 13.52734375 C-19.92704959 9.63666677 -19.71725095 7.01196297 -17.421875 3.7734375 C-14.20094407 1.41488485 -11.11514043 1.10071218 -7.25 0.75 C-6.20392578 0.63398437 -6.20392578 0.63398437 -5.13671875 0.515625 C-3.42611567 0.32816165 -1.71320729 0.16194497 0 0 Z " fill="#BD9C68" transform="translate(1334,679)"/>
<path d="M0 0 C3.45620397 -0.50069756 6.55856173 -0.66527804 10 0 C13.86523782 2.96104826 16.46295539 6.38886618 18 11 C18.36545132 15.93359277 18.2893948 19.16237274 15 23 C11.8125 24.3125 11.8125 24.3125 9 25 C9 25.66 9 26.32 9 27 C6.69 27 4.38 27 2 27 C1.67 26.34 1.34 25.68 1 25 C0.01 24.67 -0.98 24.34 -2 24 C-2.33 23.34 -2.66 22.68 -3 22 C-3.66 21.67 -4.32 21.34 -5 21 C-7 20 -7 20 -8 18 C-8.203125 15.7578125 -8.203125 15.7578125 -8.25 13.125 C-8.27578125 12.26132812 -8.3015625 11.39765625 -8.328125 10.5078125 C-7.93435932 7.49831769 -7.08356276 6.17715069 -5 4 C-2.3125 3.25 -2.3125 3.25 0 3 C0 2.01 0 1.02 0 0 Z " fill="#D6B378" transform="translate(974,838)"/>
<path d="M0 0 C3.21945105 1.01233196 5.15547594 2.13583221 7 5 C8.04648355 10.53346096 8.29743856 16.70437943 5.3125 21.6875 C1.62342303 25.37657697 -1.40895454 26.1082284 -6.5 26.4375 C-10.24397298 26.3688605 -10.88467802 26.09129657 -14 23.625 C-17.62989825 18.86075854 -17.50902326 14.85839494 -17 9 C-13.79475453 1.23993203 -8.0018278 -1.47222726 0 0 Z " fill="#B89B6B" transform="translate(1152,512)"/>
<path d="M0 0 C5.64028777 2.92086331 5.64028777 2.92086331 7 7 C7.66 7 8.32 7 9 7 C9.7790224 14.94602851 9.7790224 14.94602851 6.875 18.875 C0.94931479 23.25485428 -3.109394 24.74733671 -10.4921875 23.83203125 C-13.45380128 22.84943976 -14.25074187 22.07471306 -15.75 19.375 C-17.71896928 13.9963522 -16.76109284 9.92085335 -14.6875 4.6875 C-11.26655325 -0.76067446 -5.94962544 -0.85435798 0 0 Z " fill="#EBCD91" transform="translate(712,454)"/>
<path d="M0 0 C3.28409515 0.53099605 4.97486444 1.97535338 7.22265625 4.359375 C9.9131117 8.39505817 9.90003855 11.61769893 9.22265625 16.359375 C8.15119746 18.84596803 7.03537082 20.28008475 5.22265625 22.359375 C4.56265625 22.359375 3.90265625 22.359375 3.22265625 22.359375 C3.22265625 23.019375 3.22265625 23.679375 3.22265625 24.359375 C-4.76234675 24.98564975 -4.76234675 24.98564975 -8.71484375 22.546875 C-12.58755196 18.4394572 -13.15831583 15.99714655 -13.03515625 10.578125 C-12.1353506 2.83434306 -7.07443927 -0.23006307 0 0 Z " fill="#F6DDA7" transform="translate(1225.77734375,139.640625)"/>
<path d="M0 0 C3 2 3 2 3.6875 4.625 C3.8421875 5.800625 3.8421875 5.800625 4 7 C4.66 7 5.32 7 6 7 C5.67 8.65 5.34 10.3 5 12 C2 10 2 10 1.25 8.1875 C-0.76201989 4.66646518 -3.35470802 2.60821705 -7 1 C-11.95801781 0.09304552 -16.7428866 -0.24961295 -21.2578125 2.25 C-25.12044255 5.4823264 -27.81620467 8.41346484 -28.4140625 13.57421875 C-28.49351724 14.9448131 -28.56353138 16.31598131 -28.625 17.6875 C-28.66367188 18.38939453 -28.70234375 19.09128906 -28.7421875 19.81445312 C-28.8362334 21.54254655 -28.9191968 23.27123675 -29 25 C-28.34 25 -27.68 25 -27 25 C-25.98648336 26.65848177 -24.98879205 28.32665961 -24 30 C-22.18458556 32.61419679 -20.88041041 33.78759329 -17.765625 34.5390625 C-12.3702204 35.24210007 -8.02771402 35.13945277 -3 33 C-2.67 32.01 -2.34 31.02 -2 30 C-0.66666667 28.66666667 0.66666667 27.33333333 2 26 C4.49256582 22.3267451 4.56794473 18.32055267 5 14 C7.37160148 16.37160148 7.31983352 17.00621122 7.375 20.25 C7.2783187 24.89070263 5.9127699 27.33823212 3 31 C2.46375 31.94875 1.9275 32.8975 1.375 33.875 C0.92125 34.57625 0.4675 35.2775 0 36 C-0.66 36 -1.32 36 -2 36 C-2 36.66 -2 37.32 -2 38 C-5.20700089 39.0690003 -7.56992069 39.13332529 -10.9375 39.125 C-11.97777344 39.12757813 -13.01804688 39.13015625 -14.08984375 39.1328125 C-16.57665971 39.01932023 -18.63092407 38.71928571 -21 38 C-21 37.34 -21 36.68 -21 36 C-22.65 35.67 -24.3 35.34 -26 35 C-26 34.34 -26 33.68 -26 33 C-26.99 32.67 -27.98 32.34 -29 32 C-29.66 32.99 -30.32 33.98 -31 35 C-31.09087891 33.86111328 -31.09087891 33.86111328 -31.18359375 32.69921875 C-31.26738281 31.70535156 -31.35117188 30.71148438 -31.4375 29.6875 C-31.51871094 28.70136719 -31.59992188 27.71523438 -31.68359375 26.69921875 C-31.91812559 23.90624401 -31.91812559 23.90624401 -33 21 C-33.14252401 19.35823305 -33.22026755 17.71017345 -33.25 16.0625 C-33.27578125 15.20785156 -33.3015625 14.35320313 -33.328125 13.47265625 C-32.93521671 10.51181164 -31.91713571 9.24149958 -30 7 C-29.67 6.34 -29.34 5.68 -29 5 C-28.34 5 -27.68 5 -27 5 C-26.79375 4.236875 -26.5875 3.47375 -26.375 2.6875 C-21.5190981 -6.80358099 -7.89324339 -3.51886924 0 0 Z " fill="#796446" transform="translate(192,580)"/>
<path d="M0 0 C3.46877867 0.50344316 5.18120744 1.72164916 7.44921875 4.35546875 C8.26171875 6.16796875 8.26171875 6.16796875 8.44921875 8.35546875 C8.63484375 9.48984375 8.82046875 10.62421875 9.01171875 11.79296875 C8.44921875 15.35546875 8.44921875 15.35546875 6.91015625 16.91796875 C2.50366206 19.91234318 -1.16423035 21.35297818 -6.55078125 20.35546875 C-9.32315016 18.96622428 -10.41444077 17.80444442 -12.55078125 15.35546875 C-13.19685548 10.83294915 -12.68089938 7.39148204 -10.55078125 3.35546875 C-7.52567796 -0.48873943 -4.62350706 -0.14174255 0 0 Z " fill="#DBBA7E" transform="translate(332.55078125,766.64453125)"/>
<path d="M0 0 C2.97 0.495 2.97 0.495 6 1 C6 1.99 6 2.98 6 4 C6.66 4 7.32 4 8 4 C8 3.34 8 2.68 8 2 C8.66 2 9.32 2 10 2 C13.00019478 5.48695205 15 8.67234738 15 13.3125 C13.99379211 16.01668371 13.17941294 17.18382255 11 19 C10.67 19.66 10.34 20.32 10 21 C7.67384418 22.57846288 6.32740598 23.00818515 3.5 22.9375 C0.21516101 21.70568538 -0.86607093 19.73409662 -3 17 C-5.61818456 15.66701026 -5.61818456 15.66701026 -8 15 C-7.21681311 11.08406554 -5.60820142 7.63593365 -4 4 C-3.34 4 -2.68 4 -2 4 C-1.34 2.68 -0.68 1.36 0 0 Z " fill="#4A453B" transform="translate(232,189)"/>
<path d="M0 0 C0 0.66 0 1.32 0 2 C1.051875 2.061875 2.10375 2.12375 3.1875 2.1875 C7.70994083 3.15129887 8.99636585 4.59046934 12 8 C13.31175986 9.02813611 14.6369893 10.04084432 16 11 C15.4740625 12.11375 15.4740625 12.11375 14.9375 13.25 C13.72785618 15.85135391 13.72785618 15.85135391 14.671875 17.81640625 C15 20 15 20 13.48828125 22.76171875 C12.77027344 23.72722656 12.05226563 24.69273437 11.3125 25.6875 C10.60738281 26.66074219 9.90226563 27.63398438 9.17578125 28.63671875 C5.97108113 32.11758692 4.03777651 31.94538018 -0.5625 32.1875 C-4 32 -4 32 -7 30 C-7 29.34 -7 28.68 -7 28 C-7.763125 27.87625 -8.52625 27.7525 -9.3125 27.625 C-12 27 -12 27 -15 25 C-15 24.34 -15 23.68 -15 23 C-15.66 23 -16.32 23 -17 23 C-17 22.34 -17 21.68 -17 21 C-17.66 21 -18.32 21 -19 21 C-19.41860465 10.53488372 -19.41860465 10.53488372 -17 6 C-12.00872045 1.22183126 -7.01882131 -2.3396071 0 0 Z M-12 6 C-14.91105284 11.04885728 -15.50592813 15.29898636 -14 21 C-13.33333333 24 -13.33333333 24 -11 26 C-5.18764052 27.75541058 -0.3122853 27.62468257 5.0625 24.75 C7.96095377 22.96794886 9.05793761 21.91309359 11 19 C11.24107326 16.71351152 11.24107326 16.71351152 11.125 14.3125 C11.09792969 13.10013672 11.09792969 13.10013672 11.0703125 11.86328125 C11.04710937 11.24839844 11.02390625 10.63351562 11 10 C10.34 10 9.68 10 9 10 C8.773125 9.401875 8.54625 8.80375 8.3125 8.1875 C6.53956902 5.23261503 5.18425322 4.35500137 2 3 C-3.21419762 2.29972663 -8.00267011 2.23780716 -12 6 Z " fill="#3D3F3C" transform="translate(710,451)"/>
<path d="M0 0 C2.5 1 2.5 1 4 2 C4 2.66 4 3.32 4 4 C4.639375 4.12375 5.27875 4.2475 5.9375 4.375 C6.9584375 4.684375 6.9584375 4.684375 8 5 C9.42662219 7.85324437 9.31033868 9.83454549 9 13 C7.6875 15.875 7.6875 15.875 5 18 C-0.31202584 19.01337108 -4.53117175 18.89281717 -9.1875 16.0625 C-11.64009558 11.9184592 -11.77156588 8.69953764 -11 4 C-9.00252949 -1.11851818 -4.86028933 -0.68454779 0 0 Z " fill="#D1AF77" transform="translate(1013,687)"/>
<path d="M0 0 C2.98780693 2.98780693 2.92889621 5.33636467 3.375 9.5 C3 13 3 13 1.0625 15.4375 C-3.07269036 17.547291 -6.44463202 17.68117652 -11 17 C-13.5 15.9375 -13.5 15.9375 -15 14 C-16.08711382 10.08639025 -16.4142982 7.93217096 -14.75 4.1875 C-10.75152211 -0.81059737 -5.97270365 -1.77566865 0 0 Z " fill="#D3B077" transform="translate(526,616)"/>
<path d="M0 0 C2.17403416 3.47845466 2.45938714 6.57329246 1.5625 10.5 C-0.19589699 13.51717565 -2.2657742 15.9141371 -5.4375 17.5 C-7.7704866 17.54022391 -10.10456666 17.54320247 -12.4375 17.5 C-12.7675 16.51 -13.0975 15.52 -13.4375 14.5 C-14.0975 14.17 -14.7575 13.84 -15.4375 13.5 C-15.49187607 11.91705218 -15.53046271 10.33355744 -15.5625 8.75 C-15.58570313 7.86828125 -15.60890625 6.9865625 -15.6328125 6.078125 C-15.42680581 3.35883668 -14.89696468 1.78528277 -13.4375 -0.5 C-9.18134654 -2.39162376 -3.94948307 -2.43045112 0 0 Z " fill="#BA9967" transform="translate(1389.4375,909.5)"/>
<path d="M0 0 C2.1953125 1.234375 2.1953125 1.234375 4 3 C4.49609375 5.375 4.49609375 5.375 4.4375 8 C4.43621094 8.86625 4.43492187 9.7325 4.43359375 10.625 C3.92115321 13.43188152 3.25525297 14.30192718 1 16 C-2.71516243 17.23838748 -6.13922004 17.53600366 -10 17 C-12.5 15.5 -12.5 15.5 -14 13 C-14.60618886 8.22626273 -14.71591834 6.16028144 -12.1875 2.0625 C-8.21445032 -1.68351827 -5.1006956 -1.07383065 0 0 Z " fill="#E5C488" transform="translate(410,348)"/>
<path d="M0 0 C2.9375 1.5625 2.9375 1.5625 5 4 C5.65951493 8.61660448 5.56394783 10.82306541 3.5625 15 C-0.15801827 17.90381914 -3.44499552 17.4379812 -8 17 C-8 16.34 -8 15.68 -8 15 C-8.639375 14.731875 -9.27875 14.46375 -9.9375 14.1875 C-12 13 -12 13 -13 10 C-13.4375 6.5625 -13.4375 6.5625 -13 3 C-8.73043958 -1.1654248 -5.65333933 -1.6446078 0 0 Z " fill="#BB9D6B" transform="translate(633,880)"/>
<path d="M0 0 C3.375 1.125 3.375 1.125 5.9375 3.1875 C7.71952169 6.82902259 7.37066565 8.44093448 6.12890625 12.1875 C5.88011719 12.826875 5.63132812 13.46625 5.375 14.125 C5.00375 15.115 4.6325 16.105 4.25 17.125 C2.375 19.125 2.375 19.125 -1.5 19.6875 C-4.49298637 19.47765963 -5.87514918 18.99471397 -8.625 17.5625 C-10.625 15.125 -10.625 15.125 -11 11.5625 C-10.52162268 7.17737461 -10.08129234 5.60302054 -7 2.375 C-4.31769745 0.24721192 -3.65432963 0.12601137 0 0 Z " fill="#D4B279" transform="translate(1147.625,515.875)"/>
<path d="M0 0 C4.13146015 1.8255289 6.99357662 4.65952958 10 8 C11.11954199 11.35862597 10.94588779 11.74052703 9.625 14.8125 C8.25497869 18.19689055 7.45517383 21.35860937 7 25 C6.30132812 24.97679687 5.60265625 24.95359375 4.8828125 24.9296875 C3.97273438 24.91164063 3.06265625 24.89359375 2.125 24.875 C1.22007812 24.85179687 0.31515625 24.82859375 -0.6171875 24.8046875 C-3.18806994 24.75675164 -3.18806994 24.75675164 -5 27 C-6.32 27 -7.64 27 -9 27 C-9.61875 25.3603125 -9.61875 25.3603125 -10.25 23.6875 C-11.33708889 21.0888399 -11.73685825 20.17800765 -14.125 18.5625 C-16.38311223 16.68073981 -16.4687143 15.83847167 -16.9375 13 C-17.21963359 9.31211089 -17.21963359 9.31211089 -15.8125 7.3125 C-15.214375 6.879375 -14.61625 6.44625 -14 6 C-13.319375 5.13375 -12.63875 4.2675 -11.9375 3.375 C-8.60205287 -0.71361261 -5.00670208 -0.53159964 0 0 Z M-11.75 7.625 C-13.57482506 11.09216762 -13.68373581 14.16479221 -13 18 C-11.66666667 20.66666667 -11.66666667 20.66666667 -9 22 C-3.57630861 22.60263238 -0.46524841 22.38276394 4 19 C5.25949049 17.96593327 5.25949049 17.96593327 5.09765625 15.71484375 C5.08605469 14.79832031 5.07445312 13.88179688 5.0625 12.9375 C5.05347656 12.01839844 5.04445313 11.09929687 5.03515625 10.15234375 C5.02355469 9.44207031 5.01195312 8.73179687 5 8 C3.9275 7.34 2.855 6.68 1.75 6 C0.84507812 5.443125 0.84507812 5.443125 -0.078125 4.875 C-4.77829362 2.73508583 -8.26946539 4.393075 -11.75 7.625 Z " fill="#41423C" transform="translate(409,343)"/>
<path d="M0 0 C2.93564704 1.80141977 3.84228302 2.41971886 4.75 5.6875 C4.9375 9.375 4.9375 9.375 4.75 12.6875 C3.01043342 14.42706658 0.5563378 14.05940386 -1.8125 14.25 C-2.82441406 14.33378906 -3.83632812 14.41757812 -4.87890625 14.50390625 C-5.66136719 14.56449219 -6.44382812 14.62507812 -7.25 14.6875 C-7.25 14.0275 -7.25 13.3675 -7.25 12.6875 C-8.219375 12.378125 -9.18875 12.06875 -10.1875 11.75 C-13.25 10.6875 -13.25 10.6875 -14.25 9.6875 C-14.67557026 6.63555328 -14.73213381 3.7337091 -14.25 0.6875 C-9.74288117 -3.81961883 -5.38421278 -2.17439362 0 0 Z " fill="#DCBB7F" transform="translate(1331.25,686.3125)"/>
<path d="M0 0 C4.30682541 0.05477679 7.16563648 0.81875765 10.8125 3.25 C14.45968261 7.15769565 15.82044502 10.89802242 15.7890625 16.23828125 C15.68368767 17.68059919 15.56622402 19.12207818 15.4375 20.5625 C15.38078125 21.30306641 15.3240625 22.04363281 15.265625 22.80664062 C15.12508589 24.62193743 14.97022905 26.43611597 14.8125 28.25 C8.1875 31.25 8.1875 31.25 4.8125 31.25 C4.4825 32.24 4.1525 33.23 3.8125 34.25 C-3.19380779 34.12920159 -3.19380779 34.12920159 -5.984375 31.66015625 C-7.01192703 30.41641135 -8.00665433 29.14456058 -8.9609375 27.84375 C-10.11499972 26.10455832 -10.11499972 26.10455832 -12.1875 25.25 C-15.18031063 18.74444131 -15.54414564 13.94783497 -13.1875 7.25 C-12.5275 7.25 -11.8675 7.25 -11.1875 7.25 C-11.125625 6.63125 -11.06375 6.0125 -11 5.375 C-10.1875 3.25 -10.1875 3.25 -7.6875 2.0625 C-6.8625 1.794375 -6.0375 1.52625 -5.1875 1.25 C-3.63659185 -0.30090815 -2.15053767 0.04322689 0 0 Z M-4.1875 2.25 C-4.1875 3.24 -4.1875 4.23 -4.1875 5.25 C-4.950625 5.3325 -5.71375 5.415 -6.5 5.5 C-9.82106836 6.42680978 -10.44781385 7.32873511 -12.1875 10.25 C-12.62170191 12.73334116 -12.62170191 12.73334116 -12.5 15.3125 C-12.49613281 16.16972656 -12.49226562 17.02695312 -12.48828125 17.91015625 C-12.32898154 20.51887304 -12.32898154 20.51887304 -10.1875 23.25 C-9.1975 23.58 -8.2075 23.91 -7.1875 24.25 C-6.8575 24.91 -6.5275 25.57 -6.1875 26.25 C-5.1975 26.58 -4.2075 26.91 -3.1875 27.25 C-2.8575 27.91 -2.5275 28.57 -2.1875 29.25 C0.1225 29.25 2.4325 29.25 4.8125 29.25 C4.8125 28.59 4.8125 27.93 4.8125 27.25 C5.740625 27.023125 6.66875 26.79625 7.625 26.5625 C10.88262076 25.50338114 10.88262076 25.50338114 12.6875 23.0625 C14.10418381 19.52079047 14.21844122 17.03878475 13.8125 13.25 C12.69301585 10.60589996 12.69301585 10.60589996 10.8125 8.25 C9.7915625 6.6103125 9.7915625 6.6103125 8.75 4.9375 C5.45118023 1.91943085 4.76011086 1.86898289 0.5 1.875 C-1.0645539 1.97092885 -2.62855441 2.08653774 -4.1875 2.25 Z " fill="#6E644F" transform="translate(978.1875,835.75)"/>
<path d="M0 0 C0.99 0.33 1.98 0.66 3 1 C3.33 1.99 3.66 2.98 4 4 C3.09636719 4.10957031 2.19273438 4.21914063 1.26171875 4.33203125 C0.08222656 4.49058594 -1.09726563 4.64914062 -2.3125 4.8125 C-3.48425781 4.96332031 -4.65601563 5.11414063 -5.86328125 5.26953125 C-9.05349697 6.0124582 -10.22058122 6.30649624 -12 9 C-13.40328892 13.88210096 -13.51184316 17.85347132 -11.4375 22.5 C-6.91377224 27.13972078 -2.11343669 27.22708388 4.046875 27.36328125 C4.69140625 27.24339844 5.3359375 27.12351562 6 27 C6.66 26.01 7.32 25.02 8 24 C8.99 23.67 9.98 23.34 11 23 C12.32229189 20.35541621 12.09677194 18.32238699 12.0625 15.375 C12.05347656 14.37210938 12.04445313 13.36921875 12.03515625 12.3359375 C12.02355469 11.56507813 12.01195312 10.79421875 12 10 C12.99 10.33 13.98 10.66 15 11 C16.11152156 16.37052001 16.75084269 20.62629775 13.875 25.5 C11.58814791 28.62871522 9.84797158 30.08381629 6 31 C4.88625 31.433125 3.7725 31.86625 2.625 32.3125 C-1.92867327 33.17612769 -3.93447247 32.0711178 -8 30 C-8.721875 29.855625 -9.44375 29.71125 -10.1875 29.5625 C-13.1893668 28.63088616 -14.25916289 27.64349338 -16 25 C-16.03736521 21.59976555 -15.58715579 18.34423513 -15 15 C-15.66 14.67 -16.32 14.34 -17 14 C-16.67 13.34 -16.34 12.68 -16 12 C-16.66 12 -17.32 12 -18 12 C-18 10.68 -18 9.36 -18 8 C-13.83805362 3.89475589 -8.40306265 2.32299531 -2.78515625 1.359375 C-0.98353686 1.16808674 -0.98353686 1.16808674 0 0 Z " fill="#4D4D42" transform="translate(1328,676)"/>
<path d="M0 0 C2.75329021 1.79562405 4.52627461 3.05254922 6 6 C6.35519903 9.83614957 6.54724594 12.14629634 4.4375 15.4375 C1.05782196 17.60396028 -1.05983987 17.56288002 -5 17 C-7.77313147 15.32152569 -8.73438699 13.99833854 -9.56640625 10.87109375 C-10.11960703 7.33643195 -10.31200311 4.79950797 -9 1.4375 C-5.89523754 -0.79404801 -3.72232514 -0.51342416 0 0 Z " fill="#DCBC85" transform="translate(933,260)"/>
<path d="M0 0 C3.51643585 0.91166855 5.43292258 1.43292258 8 4 C8 4.99 8 5.98 8 7 C9.32 7.33 10.64 7.66 12 8 C12 11.96 12 15.92 12 20 C11.34 20.33 10.68 20.66 10 21 C9.67 21.99 9.34 22.98 9 24 C8.34 24 7.68 24 7 24 C7 24.66 7 25.32 7 26 C5.68 26 4.36 26 3 26 C3 24 3 24 4.375 22.5625 C4.91125 22.046875 5.4475 21.53125 6 21 C8.66539031 17.00191454 8.84149704 13.70248347 8 9 C5.72872666 5.97590636 5.72872666 5.97590636 3 4 C2.67 3.67 2.34 3.34 2 3 C-2.36455188 2.45996417 -5.86685863 2.17847251 -9.5 4.8125 C-12.53352457 9.23639 -12.61039155 13.81622695 -12 19 C-10.814179 22.10744542 -10.814179 22.10744542 -8 24 C-4.6993311 24.98295782 -1.41285966 25.56362291 2 26 C2 26.33 2 26.66 2 27 C0.41773035 27.19627391 -1.16589271 27.38165538 -2.75 27.5625 C-3.63171875 27.66691406 -4.5134375 27.77132812 -5.421875 27.87890625 C-7.94450436 27.99739339 -9.6626866 27.94312646 -12 27 C-13.75 23.9375 -13.75 23.9375 -15 21 C-15.33 21 -15.66 21 -16 21 C-17.1636574 14.81719379 -17.34859774 10.61700267 -14 5 C-9.55927683 0.14618631 -6.28234927 -0.96362728 0 0 Z " fill="#786143" transform="translate(1226,138)"/>
<path d="M0 0 C0.7734375 0.00386719 1.546875 0.00773438 2.34375 0.01171875 C4.5 0.3125 4.5 0.3125 7.5 2.3125 C8.28025672 6.27498021 7.9621042 10.12835798 6.5 13.875 C3.91232661 15.73489025 1.6608234 15.93243938 -1.48828125 15.7578125 C-5.0788392 14.96300938 -6.52229494 13.31095607 -8.5 10.3125 C-8.5 6.80344612 -8.37185367 4.46345316 -6.21875 1.62109375 C-4.01679301 -0.05539623 -2.74205375 -0.05941116 0 0 Z " fill="#B5996B" transform="translate(820.5,699.6875)"/>
<path d="M0 0 C3.28409515 0.53099605 4.97486444 1.97535338 7.22265625 4.359375 C9.9131117 8.39505817 9.90003855 11.61769893 9.22265625 16.359375 C8.15119746 18.84596803 7.03537082 20.28008475 5.22265625 22.359375 C4.56265625 22.359375 3.90265625 22.359375 3.22265625 22.359375 C3.22265625 23.019375 3.22265625 23.679375 3.22265625 24.359375 C-4.76234675 24.98564975 -4.76234675 24.98564975 -8.71484375 22.546875 C-12.58755196 18.4394572 -13.15831583 15.99714655 -13.03515625 10.578125 C-12.1353506 2.83434306 -7.07443927 -0.23006307 0 0 Z M-9.77734375 7.359375 C-9.77734375 8.019375 -9.77734375 8.679375 -9.77734375 9.359375 C-10.43734375 9.359375 -11.09734375 9.359375 -11.77734375 9.359375 C-11.44734375 11.669375 -11.11734375 13.979375 -10.77734375 16.359375 C-10.11734375 16.359375 -9.45734375 16.359375 -8.77734375 16.359375 C-8.44734375 17.349375 -8.11734375 18.339375 -7.77734375 19.359375 C-6.34199534 19.5820496 -4.9038885 19.78699406 -3.46484375 19.984375 C-2.66433594 20.10039062 -1.86382813 20.21640625 -1.0390625 20.3359375 C1.5098884 20.57470907 1.5098884 20.57470907 4.22265625 18.359375 C6.69286004 14.8490854 6.74583404 11.54479735 6.22265625 7.359375 C3.85397058 4.71998239 2.26175938 3.57252436 -1.21484375 2.859375 C-4.74584258 3.54835038 -6.97936332 5.14701838 -9.77734375 7.359375 Z " fill="#E3C184" transform="translate(1225.77734375,139.640625)"/>
<path d="M0 0 C5.64028777 2.92086331 5.64028777 2.92086331 7 7 C7.66 7 8.32 7 9 7 C9.7790224 14.94602851 9.7790224 14.94602851 6.875 18.875 C0.94931479 23.25485428 -3.109394 24.74733671 -10.4921875 23.83203125 C-13.45380128 22.84943976 -14.25074187 22.07471306 -15.75 19.375 C-17.71896928 13.9963522 -16.76109284 9.92085335 -14.6875 4.6875 C-11.26655325 -0.76067446 -5.94962544 -0.85435798 0 0 Z M-12.0625 3.875 C-13.13454674 5.91787043 -13.13454674 5.91787043 -13 8 C-13.66 8 -14.32 8 -15 8 C-15.41271158 12.20965814 -15.42484735 14.35587659 -13.0625 17.9375 C-9.01750604 20.6616796 -5.75606892 20.80827647 -1 20 C2.83173634 18.43278532 4.26883911 16.80855396 6 13 C6.83333333 10 6.83333333 10 6 7 C3.42918836 3.94065406 0.55446986 2.29547774 -3.36328125 1.55078125 C-7.12241096 1.37236102 -9.21457496 1.28597724 -12.0625 3.875 Z " fill="#C4A570" transform="translate(712,454)"/>
<path d="M0 0 C1.9375 1 1.9375 1 3 3 C3.51924271 7.59900687 3.57474194 9.89649547 1.4375 14 C-1 16 -1 16 -4.5625 16.5625 C-8 16 -8 16 -9.9375 14.5 C-11.45330201 10.93340703 -11.68773382 7.81379661 -11 4 C-8.15614633 -0.55016587 -5.11496172 -0.65099513 0 0 Z " fill="#CDAE77" transform="translate(1396,293)"/>
<path d="M0 0 C0.99 0 1.98 0 3 0 C5 3 5 3 5 6 C5.99 6 6.98 6 8 6 C9.1595285 12.00846588 9.22811481 15.51220482 6 21 C3.04955261 23.28659673 1.74268873 24 -2 24 C-2.99 23.67 -3.98 23.34 -5 23 C-5.33 22.01 -5.66 21.02 -6 20 C-4.906875 19.9175 -3.81375 19.835 -2.6875 19.75 C0.91832218 19.31102388 0.91832218 19.31102388 2.9375 17.4375 C4.53560433 13.77126065 4.32186689 10.99114942 4 7 C2.06268472 4.63589512 2.06268472 4.63589512 -1.4375 4.6875 C-4.83235628 4.75838953 -4.83235628 4.75838953 -6.9375 6 C-8.6450374 9.21418805 -8.19377673 12.44024966 -8 16 C-8 16.99 -8 17.98 -8 19 C-12.92 13.96 -12.92 13.96 -13.25 10 C-11.49873382 5.79696116 -8.87585298 3.34999086 -5 1 C-2.0625 0.625 -2.0625 0.625 0 1 C0 0.67 0 0.34 0 0 Z " fill="#313535" transform="translate(1394,289)"/>
<path d="M0 0 C1.59039404 2.47394629 1.80402771 4.86124938 2.125 7.75 C3.115 8.08 4.105 8.41 5.125 8.75 C2.43266509 14.13466983 -1.24779749 16.46694761 -6.5625 19.0625 C-8.875 19.75 -8.875 19.75 -11.875 18.75 C-12.5625 16.6875 -12.5625 16.6875 -12.875 14.75 C-13.535 14.75 -14.195 14.75 -14.875 14.75 C-17.16513653 11.3147952 -17.05342973 9.764669 -16.875 5.75 C-17.535 5.75 -18.195 5.75 -18.875 5.75 C-17 0 -17 0 -15.875 -2.25 C-10.06774849 -3.64374036 -5.0757539 -3.38383593 0 0 Z M-14.4375 1.9375 C-16.01657638 5.02699726 -16.63673894 6.36449361 -15.875 9.75 C-13.86348169 12.57869762 -12.34770854 14.41763776 -8.8671875 15.203125 C-5.71798044 15.36581466 -3.46308933 15.17268921 -0.875 13.3125 C0.5871042 9.56585798 0.90525672 5.71248021 0.125 1.75 C-4.64717177 -1.43144785 -9.95267656 -1.89100781 -14.4375 1.9375 Z " fill="#303739" transform="translate(827.875,700.25)"/>
<path d="M0 0 C0.80824219 0.11085937 1.61648438 0.22171875 2.44921875 0.3359375 C3.37154297 0.47902344 3.37154297 0.47902344 4.3125 0.625 C4.3125 1.615 4.3125 2.605 4.3125 3.625 C4.9725 3.625 5.6325 3.625 6.3125 3.625 C6.3125 4.285 6.3125 4.945 6.3125 5.625 C5.73274414 5.46201416 5.15298828 5.29902832 4.55566406 5.13110352 C1.08576877 4.34822444 -2.400123 4.52187641 -5.9375 4.5625 C-7.05511719 4.56926758 -7.05511719 4.56926758 -8.1953125 4.57617188 C-10.0260764 4.58790754 -11.85679873 4.6058415 -13.6875 4.625 C-14.0175 5.615 -14.3475 6.605 -14.6875 7.625 C-15.3475 7.625 -16.0075 7.625 -16.6875 7.625 C-19.37060721 12.81234061 -19.81564248 17.03091252 -19.75 22.8125 C-19.74548828 23.56208984 -19.74097656 24.31167969 -19.73632812 25.08398438 C-19.72456354 26.93102383 -19.70662865 28.77802213 -19.6875 30.625 C-20.3475 30.955 -21.0075 31.285 -21.6875 31.625 C-23.92436747 25.47361447 -24.57283098 19.13646653 -23.6875 12.625 C-22.2265625 10.953125 -22.2265625 10.953125 -20.6875 9.625 C-20.2234375 8.14 -20.2234375 8.14 -19.75 6.625 C-18.57493119 3.30715865 -17.8133065 2.18790325 -14.6875 0.625 C-12.625 0.9375 -12.625 0.9375 -10.6875 1.625 C-6.3617819 1.625 -4.53422634 -0.65713425 0 0 Z " fill="#454138" transform="translate(1228.6875,131.375)"/>
<path d="M0 0 C3.46877867 0.50344316 5.18120744 1.72164916 7.44921875 4.35546875 C8.26171875 6.16796875 8.26171875 6.16796875 8.44921875 8.35546875 C8.63484375 9.48984375 8.82046875 10.62421875 9.01171875 11.79296875 C8.44921875 15.35546875 8.44921875 15.35546875 6.91015625 16.91796875 C2.50366206 19.91234318 -1.16423035 21.35297818 -6.55078125 20.35546875 C-9.32315016 18.96622428 -10.41444077 17.80444442 -12.55078125 15.35546875 C-13.19685548 10.83294915 -12.68089938 7.39148204 -10.55078125 3.35546875 C-7.52567796 -0.48873943 -4.62350706 -0.14174255 0 0 Z M-7.55078125 3.35546875 C-9.74296314 7.73983254 -8.70852774 13.72448277 -7.55078125 18.35546875 C-3.31274731 18.60476486 0.42542527 18.66887492 4.51171875 17.41796875 C7.22786847 14.52658357 6.92768567 12.2605483 6.8203125 8.4140625 C6.61210659 6.13805972 6.61210659 6.13805972 4.44921875 4.35546875 C0.60821477 2.87815953 -3.50328639 3.2880105 -7.55078125 3.35546875 Z " fill="#B69869" transform="translate(332.55078125,766.64453125)"/>
<path d="M0 0 C0.33 0 0.66 0 1 0 C4.3201354 12.53943994 4.3201354 12.53943994 3 18 C1.01497995 20.77679771 -1.39163747 22.8218267 -4 25 C-4.86625 25.9075 -5.7325 26.815 -6.625 27.75 C-10.06136789 31.00550642 -13.33103743 33.12456952 -18 34 C-18.9075 34.185625 -19.815 34.37125 -20.75 34.5625 C-21.4925 34.706875 -22.235 34.85125 -23 35 C-22.67 33.68 -22.34 32.36 -22 31 C-20.845 30.979375 -19.69 30.95875 -18.5 30.9375 C-12.97792834 30.27917473 -9.67479492 26.95083586 -6 23 C-3.59366158 19.39049237 -3.40572751 16.25877434 -3 12.0625 C-2.16294679 3.45170258 -2.16294679 3.45170258 0 0 Z " fill="#584F3D" transform="translate(203,589)"/>
<path d="M0 0 C0 0.99 0 1.98 0 3 C0.598125 3.226875 1.19625 3.45375 1.8125 3.6875 C4.70715882 5.42429529 5.63035715 6.9183036 7 10 C7.57373919 15.25927594 6.65790964 18.45940437 4 23 C4.66 23.33 5.32 23.66 6 24 C3.6875 26.5 3.6875 26.5 1 29 C0.01 29 -0.98 29 -2 29 C-0.93735427 26.79296656 0.1461951 24.78775737 1.5390625 22.765625 C4.16634896 17.79204528 3.85807103 12.46305225 3 7 C0.34546668 3.93707694 -1.27856856 3.27482502 -5.2265625 2.64453125 C-9.22505242 2.39713304 -11.44952314 2.67205634 -14.9375 4.75 C-18.27520763 8.3911356 -19.2702298 11.06629553 -19.1875 16 C-19.18105469 16.845625 -19.17460938 17.69125 -19.16796875 18.5625 C-19.01154076 20.83252477 -18.63089814 22.81961604 -18 25 C-19.48046875 23.9375 -19.48046875 23.9375 -21 22 C-21.36328125 18.75 -21.36328125 18.75 -21.3125 15 C-21.30863281 13.7625 -21.30476563 12.525 -21.30078125 11.25 C-21 8 -21 8 -19 5 C-17.34467377 3.98133771 -15.67739862 2.98189187 -14 2 C-13.505 1.46375 -13.01 0.9275 -12.5 0.375 C-8.55637924 -3.23998569 -4.52843699 -1.7903123 0 0 Z " fill="#343C3C" transform="translate(1155,510)"/>
<path d="M0 0 C6.84162896 -0.65158371 6.84162896 -0.65158371 10 1.125 C11.52364827 3.98184051 11.51955068 5.81775209 11 9 C8.5459911 11.66435252 6.96147624 12.83975396 3.375 13.4375 C1 13 1 13 -0.8125 11.9375 C-2.65150018 8.93702602 -2.30671285 6.43518387 -2 3 C-1.34 2.01 -0.68 1.02 0 0 Z " fill="#D0AF78" transform="translate(231,194)"/>
<path d="M0 0 C0.33 0 0.66 0 1 0 C0.979375 0.969375 0.95875 1.93875 0.9375 2.9375 C0.64381501 5.87465895 0.64381501 5.87465895 2 7 C1.91036938 8.69141656 1.75422324 10.37959602 1.5625 12.0625 C1.46066406 12.98160156 1.35882812 13.90070313 1.25390625 14.84765625 C1.17011719 15.55792969 1.08632812 16.26820313 1 17 C1.66 17 2.32 17 3 17 C2.22427283 22.43009016 0.75984736 24.56454049 -3.625 27.9375 C-5.07122986 28.97540944 -6.5258852 30.00209101 -8 31 C-8.33 30.01 -8.66 29.02 -9 28 C-9.86625 28.474375 -10.7325 28.94875 -11.625 29.4375 C-14.85387374 30.93234895 -17.49033826 31.58218313 -21 32 C-21 30.35 -21 28.7 -21 27 C-20.19175781 26.91363281 -19.38351562 26.82726562 -18.55078125 26.73828125 C-11.57133318 26.06468564 -11.57133318 26.06468564 -5.8125 22.5 C-4.01140894 20.15859368 -4.01140894 20.15859368 -3 18 C-2.34 18 -1.68 18 -1 18 C-1.01160156 16.95199219 -1.02320313 15.90398437 -1.03515625 14.82421875 C-1.04453655 13.44531428 -1.0536365 12.06640789 -1.0625 10.6875 C-1.07087891 9.99720703 -1.07925781 9.30691406 -1.08789062 8.59570312 C-1.10307906 5.4516975 -1.00193327 3.00579981 0 0 Z " fill="#4C4538" transform="translate(1241,142)"/>
<path d="M0 0 C0.40089844 0.48597656 0.80179687 0.97195313 1.21484375 1.47265625 C3.9251008 3.79149762 6.49231619 3.41114079 9.94140625 3.49609375 C12 4 12 4 13.27734375 6.03515625 C13.51582031 6.68355469 13.75429688 7.33195313 14 8 C11 8 11 8 9 7 C7.35857459 6.85359499 5.7101859 6.77903411 4.0625 6.75 C3.18722656 6.72421875 2.31195313 6.6984375 1.41015625 6.671875 C-1.44895068 7.06112132 -2.26651539 7.74757414 -4 10 C-5.39543319 13.55201176 -5.13951324 17.2331425 -5 21 C-4.67 21.66 -4.34 22.32 -4 23 C-7.26954202 22.43628586 -8.82575883 21.50037734 -11 19 C-10.67 18.34 -10.34 17.68 -10 17 C-10.0825 15.96875 -10.165 14.9375 -10.25 13.875 C-9.92800912 8.88414132 -8.25501634 5.7564648 -5 2 C-2.1875 0.5 -2.1875 0.5 0 0 Z " fill="#373B38" transform="translate(326,761)"/>
<path d="M0 0 C0.35789474 7.15789474 0.35789474 7.15789474 -1.0625 10.5 C-3.96134638 12.74426817 -6.45385476 12.2676336 -10 12 C-11.90368048 9.20046988 -11.99184124 7.84226401 -11.8125 4.375 C-10.13517352 -2.59235614 -5.67905295 -0.93099229 0 0 Z " fill="#A88E65" transform="translate(1148,859)"/>
<path d="M0 0 C2.9375 1.25 2.9375 1.25 5.9375 3.25 C6.125 6.375 6.125 6.375 5.9375 9.25 C1.8463444 10.5334998 -1.7533475 11.63021934 -6.0625 11.25 C-7.0625 10.25 -7.0625 10.25 -7.16015625 8.18359375 C-7.14855469 7.35988281 -7.13695312 6.53617188 -7.125 5.6875 C-7.11597656 4.86121094 -7.10695313 4.03492188 -7.09765625 3.18359375 C-7.08605469 2.54550781 -7.07445312 1.90742187 -7.0625 1.25 C-3.4453125 -0.84375 -3.4453125 -0.84375 0 0 Z " fill="#E1C186" transform="translate(1012.0625,690.75)"/>
<path d="M0 0 C0.95719944 4.0680976 1.43670609 6.17899254 -0.5625 9.9375 C-3 12 -3 12 -6.125 12.4375 C-9 12 -9 12 -11 10 C-11.34952958 6.78432784 -11.25954167 4.61641148 -10 1.625 C-6.82368122 -0.95575901 -4.00554268 -0.26265854 0 0 Z " fill="#9C8660" transform="translate(153,834)"/>
<path d="M0 0 C4.98822437 2.57386577 10.11326149 6.5913496 12 12 C12.21714583 15.35025 12.17569138 18.64884959 12 22 C11.67 22 11.34 22 11 22 C10.34 18.7 9.68 15.4 9 12 C8.01 11.67 7.02 11.34 6 11 C6 9.68 6 8.36 6 7 C5.195625 6.690625 4.39125 6.38125 3.5625 6.0625 C1 5 1 5 0 4 C-1.934419 3.87416034 -3.87402763 3.82421991 -5.8125 3.8125 C-7.39998047 3.79123047 -7.39998047 3.79123047 -9.01953125 3.76953125 C-11.96574493 3.99735118 -13.56906078 4.36645315 -16 6 C-17.02304948 7.65261839 -18.02616054 9.31791365 -19 11 C-19.66 11 -20.32 11 -21 11 C-21.33 11.99 -21.66 12.98 -22 14 C-21.47616397 9.89542181 -20.34834816 7.78489488 -17.5625 4.75 C-16.94503906 4.06421875 -16.32757813 3.3784375 -15.69140625 2.671875 C-11.49864669 -1.47246932 -5.4961175 -0.82845889 0 0 Z " fill="#D3B177" transform="translate(185,580)"/>
<path d="M0 0 C0.99 0.33 1.98 0.66 3 1 C2.34 1 1.68 1 1 1 C0.855625 1.804375 0.71125 2.60875 0.5625 3.4375 C0 6 0 6 -1 7 C-1.67774045 11.40102341 -1.84116237 15.40567378 0.26953125 19.40625 C3.11642031 23.29506734 3.11642031 23.29506734 7 26 C13.34568704 26.92157281 17.35611496 25.75009476 22.56640625 22.09375 C23.03949219 21.7328125 23.51257813 21.371875 24 21 C24.33 22.32 24.66 23.64 25 25 C18.375 28 18.375 28 15 28 C14.67 28.99 14.34 29.98 14 31 C6.99369221 30.87920159 6.99369221 30.87920159 4.203125 28.41015625 C3.17557297 27.16641135 2.18084567 25.89456058 1.2265625 24.59375 C0.07250028 22.85455832 0.07250028 22.85455832 -2 22 C-4.99281063 15.49444131 -5.35664564 10.69783497 -3 4 C-2.34 4 -1.68 4 -1 4 C-0.67 2.68 -0.34 1.36 0 0 Z " fill="#45463E" transform="translate(968,839)"/>
<path d="M0 0 C-3 2 -3 2 -5.625 2.5 C-6.40875 2.665 -7.1925 2.83 -8 3 C-8.33 3.66 -8.66 4.32 -9 5 C-9.66 5 -10.32 5 -11 5 C-11 6.32 -11 7.64 -11 9 C-10.34 9 -9.68 9 -9 9 C-9 10.32 -9 11.64 -9 13 C-6.03 13.33 -3.06 13.66 0 14 C0.33 13.01 0.66 12.02 1 11 C1.99 10.67 2.98 10.34 4 10 C3.70049983 12.8951683 3.19065168 13.83823494 0.9375 15.75 C-3.12645849 17.47934404 -5.58460508 17.49059944 -10 17 C-12.5 15.5 -12.5 15.5 -14 13 C-14.60618886 8.22626273 -14.71591834 6.16028144 -12.1875 2.0625 C-8.17692734 -1.71889708 -5.14448993 -0.87359263 0 0 Z " fill="#C4A46D" transform="translate(410,348)"/>
<path d="M0 0 C1.98 1.32 3.96 2.64 6 4 C5.4740625 5.11375 5.4740625 5.11375 4.9375 6.25 C3.72785618 8.85135391 3.72785618 8.85135391 4.671875 10.81640625 C5 13 5 13 3.48828125 15.76171875 C2.77027344 16.72722656 2.05226563 17.69273437 1.3125 18.6875 C0.60738281 19.66074219 -0.09773437 20.63398438 -0.82421875 21.63671875 C-4.02891887 25.11758692 -5.96222349 24.94538018 -10.5625 25.1875 C-14 25 -14 25 -17 23 C-17 22.34 -17 21.68 -17 21 C-12.05 20.67 -7.1 20.34 -2 20 C-1.34 18.35 -0.68 16.7 0 15 C0.33 14.34 0.66 13.68 1 13 C1.14856188 8.46886254 1.10529324 4.42117296 0 0 Z " fill="#373B39" transform="translate(720,458)"/>
<path d="M0 0 C0.33 0.66 0.66 1.32 1 2 C1.66 2 2.32 2 3 2 C6.61398697 7.30804337 8.07646026 11.54123843 7 18 C6.34 18.99 5.68 19.98 5 21 C4.34 20.67 3.68 20.34 3 20 C3.01160156 19.24074219 3.02320313 18.48148438 3.03515625 17.69921875 C3.04417969 16.70535156 3.05320312 15.71148438 3.0625 14.6875 C3.07410156 13.70136719 3.08570313 12.71523438 3.09765625 11.69921875 C3.12329862 8.90036151 3.12329862 8.90036151 2 6 C0.10630916 5.63455089 -1.79008782 5.28310825 -3.6875 4.9375 C-4.74324219 4.74027344 -5.79898437 4.54304687 -6.88671875 4.33984375 C-11.05839773 3.88446599 -14.06074622 4.68691541 -18 6 C-17.67 5.01 -17.34 4.02 -17 3 C-11.67094383 0.47571023 -5.79852461 0.39207106 0 0 Z " fill="#7C6C51" transform="translate(1334,679)"/>
<path d="M0 0 C1.734375 1.23828125 1.734375 1.23828125 3.734375 4.23828125 C3.734375 5.22828125 3.734375 6.21828125 3.734375 7.23828125 C0.57321724 5.86844622 -0.2583342 5.24921745 -2.265625 2.23828125 C-9.30770205 2.95706195 -9.30770205 2.95706195 -16.265625 4.23828125 C-16.595625 7.53828125 -16.925625 10.83828125 -17.265625 14.23828125 C-16.605625 14.23828125 -15.945625 14.23828125 -15.265625 14.23828125 C-15.265625 16.21828125 -15.265625 18.19828125 -15.265625 20.23828125 C-15.925625 20.23828125 -16.585625 20.23828125 -17.265625 20.23828125 C-19.68257792 14.72762859 -20.887232 11.26139297 -19.265625 5.23828125 C-17.43438611 2.01181273 -15.68190853 0.60479466 -12.265625 -0.76171875 C-10.904375 -1.44234375 -10.904375 -1.44234375 -9.515625 -2.13671875 C-5.39660898 -2.92883722 -3.60110981 -1.91919612 0 0 Z " fill="#3F3F3B" transform="translate(938.265625,256.76171875)"/>
<path d="M0 0 C4.43730303 0.05679748 7.19678315 1.07026968 10.62109375 3.8828125 C11.875 5.375 11.875 5.375 12.5 8.375 C11.63956762 12.50507542 10.43114954 15.27063581 6.9375 17.75 C4.5136954 18.48448624 3.23183494 18.21672676 0.875 17.375 C1.844375 17.106875 2.81375 16.83875 3.8125 16.5625 C4.823125 16.170625 5.83375 15.77875 6.875 15.375 C7.42525247 13.7242426 7.95297562 12.06309751 8.375 10.375 C8.79702438 8.68690249 9.32474753 7.0257574 9.875 5.375 C3.935 3.89 3.935 3.89 -2.125 2.375 C-2.455 3.365 -2.785 4.355 -3.125 5.375 C-4.115 5.375 -5.105 5.375 -6.125 5.375 C-6.59022293 10.16808342 -6.59022293 10.16808342 -4.625 14.3125 C-4.13 14.663125 -3.635 15.01375 -3.125 15.375 C-3.455 16.365 -3.785 17.355 -4.125 18.375 C-6.625 16.3125 -6.625 16.3125 -9.125 13.375 C-9.4375 9.5625 -9.4375 9.5625 -9.125 6.375 C-8.465 6.375 -7.805 6.375 -7.125 6.375 C-6.815625 5.570625 -6.50625 4.76625 -6.1875 3.9375 C-4.63208284 0.18619979 -3.93126027 0.17324198 0 0 Z " fill="#DBBA7E" transform="translate(706.125,455.625)"/>
<path d="M0 0 C0.99 0.33 1.98 0.66 3 1 C4.11152156 6.37052001 4.75084269 10.62629775 1.875 15.5 C-0.41185209 18.62871522 -2.15202842 20.08381629 -6 21 C-7.11375 21.433125 -8.2275 21.86625 -9.375 22.3125 C-13.92867327 23.17612769 -15.93447247 22.0711178 -20 20 C-21.32276056 19.62691369 -22.65232077 19.26953585 -24 19 C-24 18.34 -24 17.68 -24 17 C-23.21625 17.165 -22.4325 17.33 -21.625 17.5 C-17.05788973 18.12994624 -12.59242327 18.60073007 -8 18 C-5.53827847 16.207809 -5.53827847 16.207809 -4 14 C-3.01 13.67 -2.02 13.34 -1 13 C0.32229189 10.35541621 0.09677194 8.32238699 0.0625 5.375 C0.05347656 4.37210938 0.04445313 3.36921875 0.03515625 2.3359375 C0.02355469 1.56507813 0.01195312 0.79421875 0 0 Z " fill="#333939" transform="translate(1340,686)"/>
<path d="M0 0 C1.20628008 2.33214148 2.1654738 4.49642139 3 7 C9.27 6.67 15.54 6.34 22 6 C22 5.34 22 4.68 22 4 C22.66 4 23.32 4 24 4 C24.33 2.68 24.66 1.36 25 0 C26 2 26 2 24.9375 5.5 C24.27734375 7.34375 24.27734375 7.34375 23 9 C18.42007295 11.10962464 14.08002128 11.24983581 9.125 11.125 C8.43664063 11.11597656 7.74828125 11.10695312 7.0390625 11.09765625 C5.35922162 11.07432513 3.67956254 11.03846326 2 11 C-1.07692308 4.6 -1.07692308 4.6 -0.6875 1.5625 C-0.460625 1.046875 -0.23375 0.53125 0 0 Z " fill="#69573F" transform="translate(1211,158)"/>
<path d="M0 0 C0.66 0 1.32 0 2 0 C2 0.66 2 1.32 2 2 C2.639375 2.2475 3.27875 2.495 3.9375 2.75 C6 4 6 4 6.875 5.875 C7.02868555 8.48765435 6.27342388 9.75278139 5 12 C5 12.66 5 13.32 5 14 C3.25 15.5078125 3.25 15.5078125 1 17.125 C0.2575 17.66382813 -0.485 18.20265625 -1.25 18.7578125 C-1.8275 19.16773438 -2.405 19.57765625 -3 20 C-3.33 19.34 -3.66 18.68 -4 18 C-5.093125 18.33 -6.18625 18.66 -7.3125 19 C-11 20 -11 20 -14 20 C-14 19.01 -14 18.02 -14 17 C-14.99 16.67 -15.98 16.34 -17 16 C-16.67 15.34 -16.34 14.68 -16 14 C-14.515 14.99 -14.515 14.99 -13 16 C-7.24239449 16.6518044 -4.5793413 15.4078819 0 12 C0.66 12 1.32 12 2 12 C1.34 8.04 0.68 4.08 0 0 Z " fill="#3C403C" transform="translate(339,770)"/>
<path d="M0 0 C2.98780693 2.98780693 2.92889621 5.33636467 3.375 9.5 C3 13 3 13 1.0625 15.4375 C-3.07269036 17.547291 -6.44463202 17.68117652 -11 17 C-13.5 15.9375 -13.5 15.9375 -15 14 C-16.08711382 10.08639025 -16.4142982 7.93217096 -14.75 4.1875 C-10.75152211 -0.81059737 -5.97270365 -1.77566865 0 0 Z M-13 3 C-14.4783226 5.95664519 -14.06032783 8.74229737 -14 12 C-13.34 12 -12.68 12 -12 12 C-12 12.66 -12 13.32 -12 14 C-6.87160006 15.81975482 -2.82315618 13.8599099 2 12 C1.67 9.36 1.34 6.72 1 4 C0.01 3.67 -0.98 3.34 -2 3 C-2 2.34 -2 1.68 -2 1 C-6.19075475 0.80508117 -9.24079436 1.06669424 -13 3 Z " fill="#A48B62" transform="translate(526,616)"/>
<path d="M0 0 C2 3 2 3 2.9375 5.625 C3.288125 6.40875 3.63875 7.1925 4 8 C4.99 8.33 5.98 8.66 7 9 C8.35827971 10.64639965 9.69254251 12.31295807 11 14 C14.10048928 15.55024464 16.57894218 15.28992015 20 15 C22.7905817 13.10183458 22.7905817 13.10183458 25 11 C25.66 11 26.32 11 27 11 C27 10.34 27 9.68 27 9 C27.99 9 28.98 9 30 9 C30 7.68 30 6.36 30 5 C30.99 4.67 31.98 4.34 33 4 C31.94853057 9.38878084 29.39942836 12.20307782 25.28515625 15.578125 C20.5835015 18.50359906 16.12262617 18.37458109 10.8125 17.4375 C7.22871831 15.60578936 4.35920664 13.28783053 2 10 C2 9.01 2 8.02 2 7 C1.34 7 0.68 7 0 7 C0 4.69 0 2.38 0 0 Z " fill="#CFAD74" transform="translate(163,598)"/>
<path d="M0 0 C3.875 2.625 3.875 2.625 5 6 C5.36545132 10.93359277 5.2893948 14.16237274 2 18 C-1.1875 19.3125 -1.1875 19.3125 -4 20 C-4 20.66 -4 21.32 -4 22 C-6.31 22 -8.62 22 -11 22 C-11.33 21.34 -11.66 20.68 -12 20 C-12.99 19.67 -13.98 19.34 -15 19 C-15.33 18.01 -15.66 17.02 -16 16 C-15.319375 16.165 -14.63875 16.33 -13.9375 16.5 C-10.51880057 17.08190629 -7.46179211 17.25642905 -4 17 C-2.2488427 15.5833253 -2.2488427 15.5833253 -1 14 C-0.01 14 0.98 14 2 14 C2.33 10.7 2.66 7.4 3 4 C2.01 3.67 1.02 3.34 0 3 C0 2.01 0 1.02 0 0 Z " fill="#C3A16B" transform="translate(987,843)"/>
<path d="M0 0 C3.21945105 1.01233196 5.15547594 2.13583221 7 5 C8.05243041 10.56490598 8.27166164 16.72431638 5.3125 21.75 C2.79587463 24.19860847 1.46733538 24.80737026 -2 25 C-1.67 24.34 -1.34 23.68 -1 23 C-0.34 23 0.32 23 1 23 C3.66786743 14.10708902 3.66786743 14.10708902 3 5 C2.01 4.67 1.02 4.34 0 4 C0 3.34 0 2.68 0 2 C-5.15640472 1.42399311 -5.15640472 1.42399311 -9.8671875 3.11328125 C-11.30861002 4.33745588 -12.66278229 5.66278229 -14 7 C-14 4 -14 4 -12.0625 1.8125 C-7.88733374 -0.65851677 -4.73445286 -0.8710748 0 0 Z " fill="#907B5A" transform="translate(1152,512)"/>
<path d="M0 0 C5.64028777 2.92086331 5.64028777 2.92086331 7 7 C7.66 7 8.32 7 9 7 C9.78774617 15.03501094 9.78774617 15.03501094 6.5 19.0625 C5.675 19.701875 4.85 20.34125 4 21 C3.34 20.67 2.68 20.34 2 20 C2.66 19.484375 3.32 18.96875 4 18.4375 C6.28338168 16.06980525 6.28338168 16.06980525 6.5625 12.5625 C5.86416465 8.13970942 4.42718561 6.77438835 1 4 C-2.44087333 2.27956333 -6.24712731 2.35152568 -10 3 C-12.00864359 5.3726974 -12.00864359 5.3726974 -13 8 C-13.66 8 -14.32 8 -15 8 C-13.52345343 2.33990483 -13.52345343 2.33990483 -11.1953125 0.828125 C-7.46452369 -0.57921882 -3.9226044 -0.56328056 0 0 Z " fill="#C1A06C" transform="translate(712,454)"/>
<path d="M0 0 C0.66 0.33 1.32 0.66 2 1 C1.67 4.3 1.34 7.6 1 11 C1.99 11.33 2.98 11.66 4 12 C4 12.99 4 13.98 4 15 C8.455 14.505 8.455 14.505 13 14 C13.33 13.01 13.66 12.02 14 11 C14.66 11 15.32 11 16 11 C16.66 7.37 17.32 3.74 18 0 C18.66 0.33 19.32 0.66 20 1 C20.58089728 4.16266296 20.74745247 6.85571662 20 10 C16.64130328 13.75261794 12.77203647 16.40932118 8 18 C4.75978738 16.58240698 1.9432656 14.96217707 -1 13 C-1.58203125 10.46875 -1.58203125 10.46875 -1.8125 7.5 C-1.90144531 6.5203125 -1.99039062 5.540625 -2.08203125 4.53125 C-2 2 -2 2 0 0 Z " fill="#333637" transform="translate(1373,912)"/>
<path d="M0 0 C0.33 0 0.66 0 1 0 C1.01417969 0.68707031 1.02835938 1.37414062 1.04296875 2.08203125 C1.18704736 4.80394886 1.39924949 7.33953344 2 10 C4.28489247 12.17341087 4.28489247 12.17341087 7 13 C7.66 13.33 8.32 13.66 9 14 C9 14.66 9 15.32 9 16 C9.515625 15.835 10.03125 15.67 10.5625 15.5 C13.73363876 14.84951 16.77218334 14.9379266 20 15 C19.67 16.32 19.34 17.64 19 19 C12.97265761 19.36902096 8.36008149 19.15298911 3 16 C0.25383436 13.18518021 -0.99180752 11.3701921 -1.015625 7.38671875 C-0.77611159 4.89648375 -0.44740325 2.46071789 0 0 Z " fill="#B79A69" transform="translate(1315,685)"/>
<path d="M0 0 C2.93794397 1.76276638 3.93807122 2.85549952 5.3125 6.0625 C6 9 6 9 5 11 C5.66 11.33 6.32 11.66 7 12 C6.2628641 13.29905098 5.50969444 14.58901122 4.75 15.875 C4.33234375 16.59429688 3.9146875 17.31359375 3.484375 18.0546875 C1.37570019 20.81816133 -0.68632247 21.71003279 -4.03515625 22.44921875 C-7.4045279 22.84523353 -9.74513342 23.08495553 -13 22 C-14.1875 19.4375 -14.1875 19.4375 -15 17 C-14.4328125 17.32355469 -13.865625 17.64710938 -13.28125 17.98046875 C-9.57151398 19.63841584 -5.98792441 19.45367213 -2 19 C0.65844217 18.15479867 0.65844217 18.15479867 2 16 C2.61006284 10.50943448 1.40954692 6.81909384 -1 2 C-0.67 1.34 -0.34 0.68 0 0 Z " fill="#46453E" transform="translate(526,613)"/>
<path d="M0 0 C3 2 3 2 3.50390625 4.20703125 C3.65771325 11.04631579 3.65771325 11.04631579 1.828125 13.69921875 C-1.49358472 16.55006755 -5.53909827 19 -10 19 C-12.00212229 19.32033957 -14.00239695 19.65259077 -16 20 C-16.33 19.01 -16.66 18.02 -17 17 C-15 15 -15 15 -13.01171875 14.9453125 C-12.24472656 15.00460937 -11.47773437 15.06390625 -10.6875 15.125 C-7.49714425 15.16096214 -5.99519316 14.99789701 -3 13.6875 C0.10066725 9.52097838 -0.09623801 5.07436792 0 0 Z " fill="#373A39" transform="translate(942,264)"/>
<path d="M0 0 C2.8125 -0.3125 2.8125 -0.3125 6 0 C7.9375 2.1875 7.9375 2.1875 9 5 C8.6875 7.8125 8.6875 7.8125 8 10 C4.7 10 1.4 10 -2 10 C-1.34 6.7 -0.68 3.4 0 0 Z " fill="#F8E2B1" transform="translate(927,263)"/>
<path d="M0 0 C2.12508244 3.18762365 2.5020163 5.26512223 3 9 C-0.52310467 12.49541819 -3.04747356 13.49343834 -8.02929688 13.49804688 C-8.74150391 13.47806641 -9.45371094 13.45808594 -10.1875 13.4375 C-11.27321289 13.44813477 -11.27321289 13.44813477 -12.38085938 13.45898438 C-14.48046875 13.43359375 -14.48046875 13.43359375 -18 13 C-20 10 -20 10 -19.625 7.8125 C-19.41875 7.214375 -19.2125 6.61625 -19 6 C-18.566875 6.66 -18.13375 7.32 -17.6875 8 C-13.98785491 10.75322426 -11.06233531 10.48236271 -6.55859375 10.53125 C-3.88699372 10.22375366 -3.88699372 10.22375366 -2.203125 8.171875 C-0.7108944 5.47810808 -0.34553486 3.04070678 0 0 Z " fill="#5B5243" transform="translate(1022,694)"/>
<path d="M0 0 C0.33 0.66 0.66 1.32 1 2 C1.66 2 2.32 2 3 2 C3.33 1.34 3.66 0.68 4 0 C4.33 0.99 4.66 1.98 5 3 C5.99 3.33 6.98 3.66 8 4 C6.86111328 4.23783203 6.86111328 4.23783203 5.69921875 4.48046875 C-0.32933619 5.75670194 -0.32933619 5.75670194 -5.1875 9.25 C-6.17859694 12.60448195 -6.20463193 15.52125726 -6 19 C-6.66 19.33 -7.32 19.66 -8 20 C-9.88453599 17.22862355 -9.99438022 15.92132313 -9.75 12.5 C-9.1281105 9.59784899 -8.50963012 7.5160502 -7 5 C-6.01 5 -5.02 5 -4 5 C-1.79857668 2.5609294 -1.79857668 2.5609294 0 0 Z " fill="#363A38" transform="translate(517,611)"/>
<path d="M0 0 C0.66 0.66 1.32 1.32 2 2 C0.88625 2.12375 -0.2275 2.2475 -1.375 2.375 C-5.03103677 2.6465813 -5.03103677 2.6465813 -7 5 C-7.318384 7.1398632 -7.318384 7.1398632 -7.25 9.5 C-7.25773438 10.69109375 -7.25773438 10.69109375 -7.265625 11.90625 C-7.18939909 14.21892751 -7.18939909 14.21892751 -5 16 C-2.33050591 16.24315656 -2.33050591 16.24315656 0.625 16.125 C1.62789062 16.10695313 2.63078125 16.08890625 3.6640625 16.0703125 C4.43492187 16.04710937 5.20578125 16.02390625 6 16 C5.67 16.66 5.34 17.32 5 18 C-4.7374975 18.76740348 -4.7374975 18.76740348 -9.1875 16.0625 C-11.64009558 11.9184592 -11.77156588 8.69953764 -11 4 C-8.92373101 -1.32043928 -5.01888644 -0.47798919 0 0 Z " fill="#B59A6C" transform="translate(1013,687)"/>
<path d="M0 0 C0 1.98 0 3.96 0 6 C-3.47325181 7.1577506 -6.36067448 7.06866652 -10 7 C-11.125 2.25 -11.125 2.25 -10 0 C-6.32426017 -2.72277024 -4.02789815 -1.64777651 0 0 Z " fill="#C4A46F" transform="translate(635,887)"/>
<path d="M0 0 C0.66 0 1.32 0 2 0 C2.66 3.3 3.32 6.6 4 10 C-2.09096751 15.96407236 -5.49097995 17 -14 17 C-14 16.34 -14 15.68 -14 15 C-14.66 15 -15.32 15 -16 15 C-16.33 12.36 -16.66 9.72 -17 7 C-15.29115995 8.62339805 -13.62553283 10.29319053 -12 12 C-12 12.66 -12 13.32 -12 14 C-9.03 14 -6.06 14 -3 14 C-2.34 12.68 -1.68 11.36 -1 10 C-0.67 9.67 -0.34 9.34 0 9 C0.07179964 7.48071962 0.08392007 5.95832518 0.0625 4.4375 C0.05347656 3.61121094 0.04445313 2.78492188 0.03515625 1.93359375 C0.02355469 1.29550781 0.01195312 0.65742187 0 0 Z " fill="#373B38" transform="translate(637,883)"/>
<path d="M0 0 C1.2684375 0.12375 1.2684375 0.12375 2.5625 0.25 C4.5625 3.25 4.5625 3.25 4.1875 6.4375 C3.98125 7.365625 3.775 8.29375 3.5625 9.25 C0.75 9.9375 0.75 9.9375 -2.4375 10.25 C-4.3125 8.8125 -4.3125 8.8125 -5.4375 7.25 C-3.22937817 0.33121827 -3.22937817 0.33121827 0 0 Z " fill="#E7C78C" transform="translate(1392.4375,295.75)"/>
<path d="M0 0 C0.66 0.33 1.32 0.66 2 1 C1.2884375 2.04800781 1.2884375 2.04800781 0.5625 3.1171875 C-1.58560801 7.08044679 -1.84510392 10.83097233 -2.375 15.2578125 C-3.03869228 18.16976238 -3.69298054 19.18196836 -6 21 C-6.33 18.69 -6.66 16.38 -7 14 C-7.99 14.495 -7.99 14.495 -9 15 C-7.564062 9.77840726 -5.22421694 5.329958 -2 1 C-1.34 0.67 -0.68 0.34 0 0 Z " fill="#534B3C" transform="translate(160,582)"/>
<path d="M0 0 C2.32516487 3.72026379 1.97753129 6.14217141 1.5625 10.5 C0.5725 11.985 0.5725 11.985 -0.4375 13.5 C-1.0975 13.17 -1.7575 12.84 -2.4375 12.5 C-1.7775 9.86 -1.1175 7.22 -0.4375 4.5 C-1.0975 4.5 -1.7575 4.5 -2.4375 4.5 C-2.4375 3.84 -2.4375 3.18 -2.4375 2.5 C-6.3975 2.5 -10.3575 2.5 -14.4375 2.5 C-14.1075 1.51 -13.7775 0.52 -13.4375 -0.5 C-9.11727303 -2.32778833 -3.99274746 -2.45707536 0 0 Z " fill="#6F6753" transform="translate(1389.4375,909.5)"/>
<path d="M0 0 C-1.36125 0.8353125 -1.36125 0.8353125 -2.75 1.6875 C-6.01868331 4.01329389 -8.05413918 5.49745052 -10 9 C-10.07876819 12.08883824 -9.60124809 14.97736189 -9 18 C-8.7215625 19.5159375 -8.7215625 19.5159375 -8.4375 21.0625 C-8.293125 21.701875 -8.14875 22.34125 -8 23 C-11 22 -11 22 -11.984375 20.3984375 C-13.80624546 15.58349414 -14.43495903 12.12485369 -13 7 C-12.01 6.34 -11.02 5.68 -10 5 C-9.690625 4.34 -9.38125 3.68 -9.0625 3 C-6.94404283 -0.98768409 -4.05204833 -1.44716012 0 0 Z " fill="#E6C485" transform="translate(177,584)"/>
<path d="M0 0 C0.33 0 0.66 0 1 0 C1.44585358 6.35341349 0.95955982 9.89425181 -3 15 C-9.12506662 16.48751618 -15.75841541 16.88339888 -22 16 C-24.875 13.25 -24.875 13.25 -26 10 C-25.75 7.625 -25.75 7.625 -25 6 C-24.01 8.31 -23.02 10.62 -22 13 C-15.09569754 14.30342906 -9.84077655 14.58545826 -3.75 10.74609375 C-0.70910718 7.71198864 -0.28103708 4.16116188 0 0 Z " fill="#635B49" transform="translate(721,463)"/>
<path d="M0 0 C2.1875 0.3125 2.1875 0.3125 4 1 C3.67 1.66 3.34 2.32 3 3 C2.34 3 1.68 3 1 3 C0.34 5.31 -0.32 7.62 -1 10 C-1.33 10 -1.66 10 -2 10 C-2.11138159 15.45769811 -1.91657981 20.61509359 -1 26 C-1.66 25.67 -2.32 25.34 -3 25 C-3 23.68 -3 22.36 -3 21 C-3.66 21 -4.32 21 -5 21 C-5.47430896 6.05926787 -5.47430896 6.05926787 -1.5625 1.22265625 C-1.046875 0.81917969 -0.53125 0.41570313 0 0 Z " fill="#685940" transform="translate(162,582)"/>
<path d="M0 0 C1 2 1 2 0.44140625 3.9453125 C0.15136719 4.66460937 -0.13867188 5.38390625 -0.4375 6.125 C-0.72496094 6.84945312 -1.01242187 7.57390625 -1.30859375 8.3203125 C-1.53675781 8.87460938 -1.76492188 9.42890625 -2 10 C-10.00360036 10.46174617 -10.00360036 10.46174617 -13.5625 8.8125 C-15.4433581 6.44098326 -15.31898502 4.95061143 -15 2 C-14.29875 2.495 -13.5975 2.99 -12.875 3.5 C-9.58201357 5.21807988 -7.66336896 5.31855382 -4 5 C-3.01 4.67 -2.02 4.34 -1 4 C-0.26676204 1.98491642 -0.26676204 1.98491642 0 0 Z " fill="#F0D397" transform="translate(1231,154)"/>
<path d="M0 0 C3.02936691 2.62545132 4.62907467 4.3085805 5.48828125 8.2265625 C5.7352616 12.4463982 5.33886041 14.49684363 2.9375 18.0625 C-0.64412341 20.42484735 -2.79034186 20.41271158 -7 20 C-7 19.67 -7 19.34 -7 19 C-5.88625 18.71125 -4.7725 18.4225 -3.625 18.125 C0.00291092 17.30758671 0.00291092 17.30758671 2 15 C2.57572629 10.64092954 2.52155523 8.70563354 -0.125 5.125 C-3.23121539 2.82910167 -5.18863862 2.26590893 -9 2 C-5.87664697 0.14912413 -3.61522873 -0.70541048 0 0 Z " fill="#715E46" transform="translate(936,258)"/>
<path d="M0 0 C1.75 1.25 1.75 1.25 2.5 3.375 C2.62375 4.303125 2.62375 4.303125 2.75 5.25 C3.74 5.25 4.73 5.25 5.75 5.25 C5.75 6.9 5.75 8.55 5.75 10.25 C3.25 8.875 3.25 8.875 0.75 7.25 C0.75 6.59 0.75 5.93 0.75 5.25 C-5.19 4.26 -5.19 4.26 -11.25 3.25 C-10.92 2.26 -10.59 1.27 -10.25 0.25 C-6.50924902 -0.99691699 -3.76856293 -1.25618764 0 0 Z " fill="#42433E" transform="translate(1016.25,683.75)"/>
<path d="M0 0 C0.66 0 1.32 0 2 0 C1.95359375 0.80824219 1.9071875 1.61648437 1.859375 2.44921875 C1.59871923 8.96053492 1.59871923 8.96053492 3.375 15.125 C7.2578951 17.8984965 11.32992027 18.40287148 16 19 C16 19.33 16 19.66 16 20 C14.41773035 20.19627391 12.83410729 20.38165538 11.25 20.5625 C10.36828125 20.66691406 9.4865625 20.77132812 8.578125 20.87890625 C6.0534362 20.99749012 4.34253077 20.93191985 2 20 C-0.03120707 16.95318939 -0.24659875 16.39881676 -0.1953125 12.98828125 C-0.18886719 12.23095703 -0.18242188 11.47363281 -0.17578125 10.69335938 C-0.15902344 9.90767578 -0.14226562 9.12199219 -0.125 8.3125 C-0.11597656 7.51521484 -0.10695313 6.71792969 -0.09765625 5.89648438 C-0.07411585 3.930861 -0.03824547 1.96539225 0 0 Z " fill="#8D744D" transform="translate(1212,145)"/>
<path d="M0 0 C4.75 0.875 4.75 0.875 7 2 C7.2876744 5.73976724 7.45876509 8.20214767 5.5625 11.5 C1.68203336 13.77149267 -1.71897773 12.84156848 -6 12 C-5.67 11.34 -5.34 10.68 -5 10 C-4.401875 10.226875 -3.80375 10.45375 -3.1875 10.6875 C-0.99319397 11.23398651 -0.99319397 11.23398651 0.6875 10 C2.56811458 7.13430159 2.6824515 4.36601411 3 1 C2.01 0.67 1.02 0.34 0 0 Z " fill="#DCBA7D" transform="translate(407,349)"/>
<path d="M0 0 C0.66 0 1.32 0 2 0 C4.71232939 4.06849409 4.30699887 6.16476784 4 11 C2 13 2 13 -1.4375 13.375 C-5 13 -5 13 -6.9375 11 C-7.288125 10.34 -7.63875 9.68 -8 9 C-4.30458414 8.04975021 -1.69541586 8.04975021 2 9 C2.20140476 5.37471432 1.85776765 3.13498292 0 0 Z " fill="#F3D9A2" transform="translate(933,264)"/>
<path d="M0 0 C1.65 0 3.3 0 5 0 C5 0.66 5 1.32 5 2 C5.66 2 6.32 2 7 2 C7 2.66 7 3.32 7 4 C7.66 4 8.32 4 9 4 C8.34 5.32 7.68 6.64 7 8 C5.02 8 3.04 8 1 8 C1 7.34 1 6.68 1 6 C0.34 6 -0.32 6 -1 6 C-0.67 4.02 -0.34 2.04 0 0 Z " fill="#D0B079" transform="translate(816,703)"/>
<path d="M0 0 C0.99 0.33 1.98 0.66 3 1 C3.33 1.99 3.66 2.98 4 4 C3.11957031 4.12117187 2.23914062 4.24234375 1.33203125 4.3671875 C0.17058594 4.53476562 -0.99085937 4.70234375 -2.1875 4.875 C-3.91033203 5.11863281 -3.91033203 5.11863281 -5.66796875 5.3671875 C-8.71344407 5.94557789 -11.22524325 6.63272856 -14 8 C-15.34410262 10.01735205 -15.34410262 10.01735205 -16 12 C-16.66 12 -17.32 12 -18 12 C-18 10.68 -18 9.36 -18 8 C-13.83805362 3.89475589 -8.40306265 2.32299531 -2.78515625 1.359375 C-0.98353686 1.16808674 -0.98353686 1.16808674 0 0 Z " fill="#484941" transform="translate(1328,676)"/>
<path d="M0 0 C1.98 0.99 1.98 0.99 4 2 C4 2.66 4 3.32 4 4 C7.96 3.34 11.92 2.68 16 2 C16 3.32 16 4.64 16 6 C15.05125 6.12375 14.1025 6.2475 13.125 6.375 C9.91332809 6.71687177 9.91332809 6.71687177 8 9 C6.68 9 5.36 9 4 9 C3.525625 7.88625 3.05125 6.7725 2.5625 5.625 C1.74693537 3.73289006 0.92143645 1.84287291 0 0 Z " fill="#4C493F" transform="translate(396,361)"/>
<path d="M0 0 C0.66 0.66 1.32 1.32 2 2 C1.67 2.99 1.34 3.98 1 5 C-1.30824842 5.71023028 -3.58303983 6.01261364 -5.96875 6.375 C-6.6390625 6.58125 -7.309375 6.7875 -8 7 C-8.33 7.99 -8.66 8.98 -9 10 C-11.64 9.67 -14.28 9.34 -17 9 C-17.33 8.01 -17.66 7.02 -18 6 C-17.28714844 5.98582031 -16.57429687 5.97164062 -15.83984375 5.95703125 C-8.93626349 5.61324596 -5.23620268 4.53804232 0 0 Z " fill="#3E403B" transform="translate(991,860)"/>
<path d="M0 0 C3.80044176 1.06679067 5.82453379 2.17906512 8.5625 5 C8.5625 5.99 8.5625 6.98 8.5625 8 C6.0875 7.01 6.0875 7.01 3.5625 6 C3.5625 5.34 3.5625 4.68 3.5625 4 C-0.0675 4 -3.6975 4 -7.4375 4 C-5.00702671 0.79177525 -4.12059587 0 0 0 Z " fill="#82755B" transform="translate(629.4375,879)"/>
<path d="M0 0 C0.66 0.33 1.32 0.66 2 1 C1.67 1.33 1.34 1.66 1 2 C2.65 2.33 4.3 2.66 6 3 C6 3.33 6 3.66 6 4 C4.865625 4.28875 3.73125 4.5775 2.5625 4.875 C1.386875 5.24625 0.21125 5.6175 -1 6 C-2.36191995 8.7238399 -2.06161289 10.98096827 -2 14 C-2 14.99 -2 15.98 -2 17 C-2.33 16.34 -2.66 15.68 -3 15 C-3.99 15 -4.98 15 -6 15 C-6 12.03 -6 9.06 -6 6 C-4.68 5.67 -3.36 5.34 -2 5 C-0.70339566 2.50965614 -0.70339566 2.50965614 0 0 Z " fill="#353938" transform="translate(145,830)"/>
<path d="M0 0 C1.875 0.1875 1.875 0.1875 4 1 C5.53323029 3.62839479 6.05253368 5.33457334 5.8125 8.375 C4.76874462 11.74713278 3.53204991 14.81333619 2 18 C-0.40545638 19.20272819 -1.94996953 19.10071472 -4.625 19.0625 C-5.85089844 19.04896484 -5.85089844 19.04896484 -7.1015625 19.03515625 C-7.72804688 19.02355469 -8.35453125 19.01195312 -9 19 C-9 18.67 -9 18.34 -9 18 C-5.04 17.505 -5.04 17.505 -1 17 C-0.27039138 15.4473205 0.43292641 13.88226957 1.125 12.3125 C1.51945312 11.44238281 1.91390625 10.57226562 2.3203125 9.67578125 C3.1624588 6.36043517 2.53922924 4.99181313 1 2 C0.67 1.34 0.34 0.68 0 0 Z " fill="#BF9E6A" transform="translate(1151,517)"/>
<path d="M0 0 C0.66 0 1.32 0 2 0 C2.06058594 0.63808594 2.12117187 1.27617188 2.18359375 1.93359375 C2.26738281 2.75988281 2.35117187 3.58617187 2.4375 4.4375 C2.55931641 5.67306641 2.55931641 5.67306641 2.68359375 6.93359375 C2.78930815 8.98662025 2.78930815 8.98662025 4 10 C5.85287502 10.07226502 7.70833878 10.0838122 9.5625 10.0625 C10.57441406 10.05347656 11.58632813 10.04445313 12.62890625 10.03515625 C13.41136719 10.02355469 14.19382812 10.01195312 15 10 C14.67 11.32 14.34 12.64 14 14 C11.03 14 8.06 14 5 14 C5 13.34 5 12.68 5 12 C4.360625 11.731875 3.72125 11.46375 3.0625 11.1875 C1 10 1 10 0 7 C-0.03954234 4.66700175 -0.04401732 2.33291811 0 0 Z " fill="#907C5B" transform="translate(620,883)"/>
<path d="M0 0 C0.66 0.33 1.32 0.66 2 1 C2 1.99 2 2.98 2 4 C2.66 4 3.32 4 4 4 C2.88095702 6.23808595 1.54846963 8.0346347 0 10 C-0.43183594 10.55429687 -0.86367187 11.10859375 -1.30859375 11.6796875 C-3 13 -3 13 -5.26171875 12.85546875 C-6.06222656 12.63503906 -6.86273437 12.41460938 -7.6875 12.1875 C-8.49574219 11.97480469 -9.30398438 11.76210938 -10.13671875 11.54296875 C-10.75160156 11.36378906 -11.36648438 11.18460938 -12 11 C-12 9.35 -12 7.7 -12 6 C-11.01 7.485 -11.01 7.485 -10 9 C-6.5 9.5 -6.5 9.5 -3 9 C-0.87491756 5.81237635 -0.4979837 3.73487777 0 0 Z " fill="#272F32" transform="translate(1148,861)"/>
<path d="M0 0 C1 1 1 1 1.0625 3.5625 C1.041875 4.366875 1.02125 5.17125 1 6 C-1.64 6 -4.28 6 -7 6 C-7 4.02 -7 2.04 -7 0 C-4.31633121 -1.3418344 -2.84719317 -0.73004953 0 0 Z " fill="#B79766" transform="translate(1146,862)"/>
<path d="M0 0 C0 0.66 0 1.32 0 2 C-0.95712891 2.25523437 -0.95712891 2.25523437 -1.93359375 2.515625 C-2.75988281 2.75796875 -3.58617187 3.0003125 -4.4375 3.25 C-5.26121094 3.48203125 -6.08492187 3.7140625 -6.93359375 3.953125 C-9.15443799 4.81139871 -9.15443799 4.81139871 -9.90625 6.9375 C-10.22364691 9.2787864 -10.22364691 9.2787864 -8.0625 11.75 C-7.381875 12.4925 -6.70125 13.235 -6 14 C-7.32 13.67 -8.64 13.34 -10 13 C-10 12.34 -10 11.68 -10 11 C-10.66 11 -11.32 11 -12 11 C-12.125 4.25 -12.125 4.25 -11 2 C-7.24079436 0.06669424 -4.19075475 -0.19491883 0 0 Z " fill="#C3A16B" transform="translate(524,617)"/>
<path d="M0 0 C0.99 0.33 1.98 0.66 3 1 C3.33 4.3 3.66 7.6 4 11 C3.01 11.33 2.02 11.66 1 12 C1 13.32 1 14.64 1 16 C0.01 16 -0.98 16 -2 16 C-2 16.66 -2 17.32 -2 18 C-2.99 18.33 -3.98 18.66 -5 19 C-3.98240456 16.80825598 -3.03882343 15.04425871 -1.4375 13.21875 C0.40031113 10.38212847 0.30703194 8.59689433 0.1875 5.25 C0.16042969 4.26515625 0.13335937 3.2803125 0.10546875 2.265625 C0.07066406 1.51796875 0.03585938 0.7703125 0 0 Z " fill="#E8C88A" transform="translate(192,591)"/>
<path d="M0 0 C0.99 0.33 1.98 0.66 3 1 C4.13556872 6.48670828 4.7240512 10.67120726 1.75 15.625 C0.421875 17.6015625 0.421875 17.6015625 -1 19 C-1.99 19 -2.98 19 -4 19 C-3.36681223 14.31441048 -3.36681223 14.31441048 -1.46875 12.6875 C0.64428019 10.25976319 0.29896798 8.4707594 0.1875 5.3125 C0.16042969 4.31863281 0.13335938 3.32476563 0.10546875 2.30078125 C0.07066406 1.54152344 0.03585937 0.78226563 0 0 Z " fill="#333938" transform="translate(1340,686)"/>
<path d="M0 0 C-0.47566406 0.84304688 -0.47566406 0.84304688 -0.9609375 1.703125 C-2.06874525 4.15196317 -2.38975399 6.08387855 -2.625 8.75 C-2.69976563 9.54921875 -2.77453125 10.3484375 -2.8515625 11.171875 C-2.90054688 11.77515625 -2.94953125 12.3784375 -3 13 C-3.99 13 -4.98 13 -6 13 C-7.22333253 10.55333494 -7.04546823 9.20770626 -6.8125 6.5 C-6.75707031 5.7059375 -6.70164062 4.911875 -6.64453125 4.09375 C-6 2 -6 2 -4.07421875 0.71875 C-2 0 -2 0 0 0 Z " fill="#41433E" transform="translate(1005,687)"/>
<path d="M0 0 C1.30078125 2.05859375 1.30078125 2.05859375 2 4 C1.29875 3.855625 0.5975 3.71125 -0.125 3.5625 C-1.07375 3.376875 -2.0225 3.19125 -3 3 C-4.5159375 2.6596875 -4.5159375 2.6596875 -6.0625 2.3125 C-8.90628812 1.86698204 -8.90628812 1.86698204 -11.3125 2.4375 C-14.1483899 5.06332398 -13.75782042 8.24621654 -14 12 C-14.33 12 -14.66 12 -15 12 C-15.28531211 8.62063657 -15.40670224 5.37291725 -15 2 C-11.37443471 -2.22982617 -5.00178807 -1.62004817 0 0 Z " fill="#C9A972" transform="translate(1331,683)"/>
<path d="M0 0 C2 3 2 3 2.9375 5.625 C3.288125 6.40875 3.63875 7.1925 4 8 C4.99 8.33 5.98 8.66 7 9 C8.37868281 10.62935241 9.71274093 12.29749607 11 14 C11.66 14.66 12.32 15.32 13 16 C10.875 16.375 10.875 16.375 8 16 C5.66752912 14.27932476 3.67653141 12.36788457 2 10 C2 9.01 2 8.02 2 7 C1.34 7 0.68 7 0 7 C0 4.69 0 2.38 0 0 Z " fill="#D8B476" transform="translate(163,598)"/>
<path d="M0 0 C0 1.65 0 3.3 0 5 C-1.98 5.66 -3.96 6.32 -6 7 C-6 6.34 -6 5.68 -6 5 C-6.99 4.67 -7.98 4.34 -9 4 C-8.67 3.01 -8.34 2.02 -8 1 C-5.29120665 -0.35439668 -2.99066732 -0.06501451 0 0 Z " fill="#E9CA90" transform="translate(242,198)"/>
<path d="M0 0 C0 0.66 0 1.32 0 2 C-1.3303125 2.433125 -1.3303125 2.433125 -2.6875 2.875 C-5.50382424 3.83148748 -8.25083156 4.86798946 -11 6 C-11 8.31 -11 10.62 -11 13 C-11.99 12.67 -12.98 12.34 -14 12 C-14 11.34 -14 10.68 -14 10 C-14.66 10 -15.32 10 -16 10 C-16 9.34 -16 8.68 -16 8 C-15.01 7.67 -14.02 7.34 -13 7 C-12.86335937 6.35546875 -12.72671875 5.7109375 -12.5859375 5.046875 C-12.39257812 4.37140625 -12.19921875 3.6959375 -12 3 C-10.0390625 1.953125 -10.0390625 1.953125 -7.625 1.25 C-6.83351563 1.00765625 -6.04203125 0.7653125 -5.2265625 0.515625 C-3 0 -3 0 0 0 Z " fill="#2E3638" transform="translate(631,877)"/>
<path d="M0 0 C0.66 0.33 1.32 0.66 2 1 C-0.39509338 3.89932357 -2.31245243 4.50168276 -6 5 C-6 5.66 -6 6.32 -6 7 C-8.31 7 -10.62 7 -13 7 C-13.33 6.34 -13.66 5.68 -14 5 C-14.99 4.67 -15.98 4.34 -17 4 C-17.33 3.01 -17.66 2.02 -18 1 C-16.7315625 1.495 -16.7315625 1.495 -15.4375 2 C-11.69030153 3.0900941 -8.88328027 3.35302548 -5 3 C-2.25427272 1.52012037 -2.25427272 1.52012037 0 0 Z " fill="#AC8F61" transform="translate(989,858)"/>
<path d="M0 0 C2 2 2 2 2.3125 5.25 C1.98188343 9.21739888 0.9941069 11.59340071 -1 15 C-0.34 15.33 0.32 15.66 1 16 C-1.3125 18.5 -1.3125 18.5 -4 21 C-4.99 21 -5.98 21 -7 21 C-5.94332943 18.80537651 -4.85359726 16.78039589 -3.5 14.75 C-1.81802054 11.66637099 -1.30756697 9.15296878 -0.8125 5.6875 C-0.65394531 4.61886719 -0.49539063 3.55023437 -0.33203125 2.44921875 C-0.22246094 1.64097656 -0.11289063 0.83273437 0 0 Z " fill="#2A3336" transform="translate(1160,518)"/>
<path d="M0 0 C1.59412284 3.18824568 1.10174735 6.62896662 1.0625 10.125 C1.05798828 10.87910156 1.05347656 11.63320312 1.04882812 12.41015625 C1.03703499 14.27347127 1.01909942 16.13674555 1 18 C0.34 18.33 -0.32 18.66 -1 19 C-3.14526035 13.19517788 -3.37715922 8.07504913 -2 2 C-1.34 1.34 -0.68 0.68 0 0 Z " fill="#4F4739" transform="translate(1208,144)"/>
<path d="M0 0 C0 0.99 0 1.98 0 3 C-3.76801798 6.44733559 -6.46176878 8.33763566 -11.625 8.5625 C-15.81645342 8.31930987 -18.11538375 7.15504903 -21 4 C-21.33 3.01 -21.66 2.02 -22 1 C-21.01 1.33 -20.02 1.66 -19 2 C-19 2.66 -19 3.32 -19 4 C-17.68 4.33 -16.36 4.66 -15 5 C-15 5.66 -15 6.32 -15 7 C-12.69 7 -10.38 7 -8 7 C-8 6.34 -8 5.68 -8 5 C-7.05125 4.54625 -6.1025 4.0925 -5.125 3.625 C-1.99686321 2.19761746 -1.99686321 2.19761746 0 0 Z " fill="#77684F" transform="translate(991,858)"/>
<path d="M0 0 C5.75 -0.125 5.75 -0.125 8 1 C8.042721 2.66611905 8.04063832 4.33382885 8 6 C7 7 7 7 4.4375 7.0625 C3.2309375 7.0315625 3.2309375 7.0315625 2 7 C2 6.34 2 5.68 2 5 C1.34 4.67 0.68 4.34 0 4 C0 2.66666667 0 1.33333333 0 0 Z " fill="#CAAB75" transform="translate(145,837)"/>
<path d="M0 0 C2.45802095 3.68703143 2.40285195 6.60174091 2.4375 10.875 C2.48680664 11.93654297 2.48680664 11.93654297 2.53710938 13.01953125 C2.57954767 17.16305176 2.17352725 18.7934838 -0.52734375 22.0078125 C-1.34332031 22.66523437 -2.15929687 23.32265625 -3 24 C-3.99 23.67 -4.98 23.34 -6 23 C-5.38125 22.4225 -4.7625 21.845 -4.125 21.25 C-0.13717376 17.02759575 0.25175751 13.8128588 0.140625 8.19140625 C-0.01705652 5.73420263 -0.47441308 3.40268306 -1 1 C-0.67 0.67 -0.34 0.34 0 0 Z " fill="#705F44" transform="translate(198,590)"/>
<path d="M0 0 C2 1 2 1 2.9375 2.9375 C3.95345922 5.31971493 3.95345922 5.31971493 7 7 C7 7.66 7 8.32 7 9 C9.64 9 12.28 9 15 9 C15 9.66 15 10.32 15 11 C10.18234501 11.47231912 7.05848974 11.74976357 3 8.875 C0.84700902 5.78007546 0.26008662 3.72790821 0 0 Z " fill="#9B8661" transform="translate(1135,527)"/>
<path d="M0 0 C0.33 0 0.66 0 1 0 C1.33 4.29 1.66 8.58 2 13 C2.99 13.33 3.98 13.66 5 14 C5.33 15.98 5.66 17.96 6 20 C5.01 19.67 4.02 19.34 3 19 C2.34 19.99 1.68 20.98 1 22 C0.93941406 21.27554688 0.87882813 20.55109375 0.81640625 19.8046875 C0.29291872 13.6895097 0.29291872 13.6895097 -0.625 7.625 C-1.02808466 4.8034074 -0.72521296 2.73969339 0 0 Z " fill="#746146" transform="translate(160,593)"/>
<path d="M0 0 C0.33 0 0.66 0 1 0 C1 5.94 1 11.88 1 18 C1.66 18 2.32 18 3 18 C2.67 18.66 2.34 19.32 2 20 C0 19 0 19 -0.6328125 17.15234375 C-0.79523438 16.42144531 -0.95765625 15.69054687 -1.125 14.9375 C-1.37636719 13.83728516 -1.37636719 13.83728516 -1.6328125 12.71484375 C-1.81457031 11.86599609 -1.81457031 11.86599609 -2 11 C-2.33 11 -2.66 11 -3 11 C-3.36785986 4.62376238 -3.36785986 4.62376238 -1.5625 1.5625 C-1.046875 1.046875 -0.53125 0.53125 0 0 Z " fill="#8F724C" transform="translate(162,587)"/>
<path d="M0 0 C2.1640625 0.2421875 2.1640625 0.2421875 4.625 0.875 C5.85089844 1.18050781 5.85089844 1.18050781 7.1015625 1.4921875 C8.04128906 1.74355469 8.04128906 1.74355469 9 2 C9 2.66 9 3.32 9 4 C3.39 4 -2.22 4 -8 4 C-7.34 3.01 -6.68 2.02 -6 1 C-5.38125 1.20625 -4.7625 1.4125 -4.125 1.625 C-3.073125 1.810625 -3.073125 1.810625 -2 2 C-1.34 1.34 -0.68 0.68 0 0 Z " fill="#534C3D" transform="translate(180,572)"/>
<path d="M0 0 C6.30818278 -0.35706695 6.30818278 -0.35706695 8.9375 1 C10.67278693 4.26642246 10.17982715 7.34351452 10 11 C8 7 8 7 6 3 C4.02 3 2.04 3 0 3 C0 2.01 0 1.02 0 0 Z " fill="#A98E62" transform="translate(1389,293)"/>
<path d="M0 0 C1.4370809 -0.05422947 2.87475462 -0.09289723 4.3125 -0.125 C5.11300781 -0.14820313 5.91351562 -0.17140625 6.73828125 -0.1953125 C9 0 9 0 12 2 C12.29296875 4.1640625 12.29296875 4.1640625 12.1875 6.625 C12.16042969 7.44226563 12.13335938 8.25953125 12.10546875 9.1015625 C12.07066406 9.72804688 12.03585937 10.35453125 12 11 C10.66666667 8.33333333 9.33333333 5.66666667 8 3 C7.01 3 6.02 3 5 3 C5 2.34 5 1.68 5 1 C3.02 1.33 1.04 1.66 -1 2 C-0.67 1.34 -0.34 0.68 0 0 Z " fill="#998562" transform="translate(816,700)"/>
<path d="M0 0 C0 1.32 0 2.64 0 4 C-0.66 4 -1.32 4 -2 4 C-2 4.66 -2 5.32 -2 6 C-2.66 6 -3.32 6 -4 6 C-4 7.98 -4 9.96 -4 12 C-4.66 12 -5.32 12 -6 12 C-6 13.98 -6 15.96 -6 18 C-6.33 18 -6.66 18 -7 18 C-7.47619048 6.0952381 -7.47619048 6.0952381 -3.5 1.125 C-2 0 -2 0 0 0 Z " fill="#303738" transform="translate(698,454)"/>
<path d="M0 0 C1.15392455 2.3078491 1.53437166 4.47230331 2 7 C3.32 7 4.64 7 6 7 C6 7.66 6 8.32 6 9 C6.66 9 7.32 9 8 9 C8.33 8.34 8.66 7.68 9 7 C9 7.99 9 8.98 9 10 C2.62573591 11.32296047 2.62573591 11.32296047 0.0625 10 C-1.54277462 6.9783066 -1.24836303 4.35290093 -1 1 C-0.67 0.67 -0.34 0.34 0 0 Z " fill="#C5A774" transform="translate(230,196)"/>
<path d="M0 0 C2.12508244 3.18762365 2.5020163 5.26512223 3 9 C-1.625 13 -1.625 13 -5 13 C-3.79618552 10.50638429 -2.54571278 8.31856917 -1 6 C-0.60986284 4.0103005 -0.26797351 2.00980131 0 0 Z " fill="#3E3D35" transform="translate(1022,694)"/>
<path d="M0 0 C0.33 0.99 0.66 1.98 1 3 C-1.45091043 5.68433048 -3.28241384 6.91789741 -7.04296875 7.09765625 C-7.75066406 7.08605469 -8.45835937 7.07445312 -9.1875 7.0625 C-11.0746875 7.0315625 -11.0746875 7.0315625 -13 7 C-13.33 6.01 -13.66 5.02 -14 4 C-10.37 4 -6.74 4 -3 4 C-2.67 3.01 -2.34 2.02 -2 1 C-1.34 0.67 -0.68 0.34 0 0 Z " fill="#AE9467" transform="translate(413,358)"/>
<path d="M0 0 C0.66 0.33 1.32 0.66 2 1 C1.79375 1.515625 1.5875 2.03125 1.375 2.5625 C0.75031472 6.6229543 2.1871823 10.3743646 4 14 C3.236875 13.690625 2.47375 13.38125 1.6875 13.0625 C-0.18789677 12.32106407 -2.08684652 11.63771783 -4 11 C-3.21681311 7.08406554 -1.60820142 3.63593365 0 0 Z " fill="#3D3B33" transform="translate(228,193)"/>
<path d="M0 0 C1.60332791 -0.08121924 3.20784026 -0.13929134 4.8125 -0.1875 C6.15248047 -0.23970703 6.15248047 -0.23970703 7.51953125 -0.29296875 C10 0 10 0 11.82421875 1.32421875 C13 3 13 3 13 6 C13.66 6 14.32 6 15 6 C15 9.3 15 12.6 15 16 C14.67 16 14.34 16 14 16 C13.938125 14.783125 13.87625 13.56625 13.8125 12.3125 C13.27972409 7.82764009 11.49793857 5.88579932 8 3 C7.67 2.67 7.34 2.34 7 2 C4.67182036 1.63239269 2.3381615 1.29758419 0 1 C0 0.67 0 0.34 0 0 Z " fill="#91724B" transform="translate(1221,139)"/>
<path d="M0 0 C0 2.64 0 5.28 0 8 C-1.20628008 5.66785852 -2.1654738 3.50357861 -3 1 C-5.31 1.33 -7.62 1.66 -10 2 C-10.33 3.98 -10.66 5.96 -11 8 C-11.33 8 -11.66 8 -12 8 C-11.6875 4.625 -11.6875 4.625 -11 1 C-6.8204355 -1.78637633 -4.85331323 -0.79562512 0 0 Z " fill="#7E7056" transform="translate(1148,859)"/>
<path d="M0 0 C0.66 0.33 1.32 0.66 2 1 C2.68779393 13.87703078 2.68779393 13.87703078 0.3125 17.75 C-2.20412537 20.19860847 -3.53266462 20.80737026 -7 21 C-6 19 -6 19 -3 18 C1.01573441 12.49695655 0.28367867 6.49308949 0 0 Z " fill="#72654E" transform="translate(1157,516)"/>
<path d="M0 0 C0.66 0.33 1.32 0.66 2 1 C1.67 4.3 1.34 7.6 1 11 C1.99 11.33 2.98 11.66 4 12 C4 12.66 4 13.32 4 14 C2.35 13.67 0.7 13.34 -1 13 C-1.22151549 11.20991533 -1.42682213 9.41781838 -1.625 7.625 C-1.74101563 6.62726562 -1.85703125 5.62953125 -1.9765625 4.6015625 C-1.98429687 3.74304688 -1.99203125 2.88453125 -2 2 C-1.34 1.34 -0.68 0.68 0 0 Z " fill="#3D423E" transform="translate(1373,912)"/>
<path d="M0 0 C0.99 0.33 1.98 0.66 3 1 C2.319375 1.969375 1.63875 2.93875 0.9375 3.9375 C-1.65965743 8.38456255 -1.01871227 12.11682489 0 17 C-2.13044088 15.28099347 -2.93135469 14.40312296 -3.3984375 11.66015625 C-3.39070312 10.80292969 -3.38296875 9.94570313 -3.375 9.0625 C-3.38273438 8.20785156 -3.39046875 7.35320313 -3.3984375 6.47265625 C-2.9319174 3.5774874 -1.91238222 2.18052047 0 0 Z " fill="#AA9064" transform="translate(969,842)"/>
<path d="M0 0 C0.66 0 1.32 0 2 0 C3.35460993 6.40361057 3.35460993 6.40361057 1.625 9.3125 C1.08875 9.869375 0.5525 10.42625 0 11 C-0.33 11.66 -0.66 12.32 -1 13 C-3.31 13 -5.62 13 -8 13 C-8.33 12.34 -8.66 11.68 -9 11 C-7.329375 10.5978125 -7.329375 10.5978125 -5.625 10.1875 C-1.78159049 9.34190981 -1.78159049 9.34190981 0 6 C0.16699232 2.87478167 0.16699232 2.87478167 0 0 Z " fill="#303534" transform="translate(153,835)"/>
<path d="M0 0 C3.55780196 0.60990891 6.6828589 1.5783681 10 3 C9.8864371 4.64666203 9.75882619 6.29236082 9.625 7.9375 C9.55539062 8.85402344 9.48578125 9.77054687 9.4140625 10.71484375 C9.27742188 11.46894531 9.14078125 12.22304688 9 13 C8.01 13.495 8.01 13.495 7 14 C7 10.7 7 7.4 7 4 C5.68 3.34 4.36 2.68 3 2 C2.01 1.34 1.02 0.68 0 0 Z " fill="#5E5847" transform="translate(407,347)"/>
<path d="M0 0 C3.5 0.125 3.5 0.125 4.5 1.125 C5.49 1.125 6.48 1.125 7.5 1.125 C6.20256222 3.71987555 5.20637529 4.14769781 2.5 5.125 C-0.125 4.9375 -0.125 4.9375 -2.5 4.125 C-3.16 3.135 -3.82 2.145 -4.5 1.125 C-3.5 0.125 -3.5 0.125 0 0 Z " fill="#323533" transform="translate(235.5,206.875)"/>
<path d="M0 0 C13.56886228 -0.59281437 13.56886228 -0.59281437 18 3 C18.875 6.1875 18.875 6.1875 19 9 C18.01 8.34 17.02 7.68 16 7 C16 6.34 16 5.68 16 5 C15.34 5 14.68 5 14 5 C14 4.34 14 3.68 14 3 C10.99221479 1.99740493 8.46179353 1.69685358 5.3125 1.4375 C4.31863281 1.35371094 3.32476563 1.26992187 2.30078125 1.18359375 C1.16189453 1.09271484 1.16189453 1.09271484 0 1 C0 0.67 0 0.34 0 0 Z " fill="#554B3B" transform="translate(1219,135)"/>
<path d="M0 0 C1.66611905 -0.042721 3.33382885 -0.04063832 5 0 C6.87643761 1.87643761 6.17984987 4.49805701 6.23046875 6.9921875 C6 9 6 9 4 12 C3.34 11.67 2.68 11.34 2 11 C2.66 8.36 3.32 5.72 4 3 C3.34 3 2.68 3 2 3 C2 2.34 2 1.68 2 1 C1.34 0.67 0.68 0.34 0 0 Z " fill="#826F53" transform="translate(1385,911)"/>
<path d="M0 0 C3.63 0 7.26 0 11 0 C11 0.33 11 0.66 11 1 C8.36 1 5.72 1 3 1 C3 4.3 3 7.6 3 11 C0 9 0 9 -0.75 6.0625 C-1 3 -1 3 0 0 Z " fill="#A88E62" transform="translate(622,883)"/>
<path d="M0 0 C0.7734375 0.495 0.7734375 0.495 1.5625 1 C5.92067002 2.78796719 10.55491427 2.42242743 15 1 C15 1.66 15 2.32 15 3 C11.96474514 5.02350324 10.80573798 5.32124018 7.3125 5.625 C6.50425781 5.69976563 5.69601562 5.77453125 4.86328125 5.8515625 C3.94095703 5.92503906 3.94095703 5.92503906 3 6 C3 5.01 3 4.02 3 3 C2.01 2.67 1.02 2.34 0 2 C0 1.34 0 0.68 0 0 Z " fill="#464239" transform="translate(322,784)"/>
<path d="M0 0 C2.10388569 -0.05402274 4.20816714 -0.09280256 6.3125 -0.125 C8.07013672 -0.15980469 8.07013672 -0.15980469 9.86328125 -0.1953125 C13 0 13 0 16 2 C16 2.66 16 3.32 16 4 C16.66 4 17.32 4 18 4 C18.33 5.32 18.66 6.64 19 8 C16 6 13 4 10 2 C7.49103314 1.54398739 7.49103314 1.54398739 4.8125 1.375 C3.91144531 1.30023437 3.01039063 1.22546875 2.08203125 1.1484375 C1.39496094 1.09945312 0.70789063 1.05046875 0 1 C0 0.67 0 0.34 0 0 Z " fill="#907650" transform="translate(175,579)"/>
<path d="M0 0 C0.99 0.33 1.98 0.66 3 1 C2.67 1.66 2.34 2.32 2 3 C2.02308617 5.11620405 2.02308617 5.11620405 2.3125 7.4375 C2.39113281 8.21996094 2.46976563 9.00242187 2.55078125 9.80859375 C2.91386649 12.27847118 2.91386649 12.27847118 5 15 C3.35 14.67 1.7 14.34 0 14 C0.33 12.68 0.66 11.36 1 10 C0.34 10 -0.32 10 -1 10 C-1.125 3.375 -1.125 3.375 0 0 Z " fill="#625542" transform="translate(922,261)"/>
<path d="M0 0 C2 2 2 2 2.23046875 4.09375 C2.21628906 4.8878125 2.20210937 5.681875 2.1875 6.5 C2.18105469 7.2940625 2.17460938 8.088125 2.16796875 8.90625 C2 11 2 11 1 13 C0.34 13 -0.32 13 -1 13 C-1.66 14.65 -2.32 16.3 -3 18 C-3.33 17.34 -3.66 16.68 -4 16 C-3.22265625 13.828125 -3.22265625 13.828125 -2.0625 11.25 C-0.40205975 7.31287363 0.45619114 4.3338158 0 0 Z " fill="#5C4F3C" transform="translate(1239,147)"/>
<path d="M0 0 C0.928125 0.2784375 0.928125 0.2784375 1.875 0.5625 C4.04160178 1.23686176 4.04160178 1.23686176 6 0 C6 0.66 6 1.32 6 2 C7.32 2 8.64 2 10 2 C10.33 1.34 10.66 0.68 11 0 C12.32 0.33 13.64 0.66 15 1 C12.45687431 3.44140066 11.06051786 3.99243527 7.5 4.4375 C3.51463677 3.9393296 2.42473694 3.10366328 0 0 Z " fill="#E8C889" transform="translate(172,610)"/>
<path d="M0 0 C2 1 2 1 3.25 3.4375 C5.52517392 6.76900466 7.11381835 7.10318885 11 8 C13.32694964 8.37531446 15.65976685 8.71917202 18 9 C18 9.33 18 9.66 18 10 C6.04228856 10.42537313 6.04228856 10.42537313 2 8 C0.86640292 5.30357975 0.47184305 2.92542688 0 0 Z " fill="#675E4C" transform="translate(1314,695)"/>
<path d="M0 0 C0.66 0 1.32 0 2 0 C2 1.65 2 3.3 2 5 C-1.28696233 5.79953138 -2.71023192 6.09658936 -6 5 C-6 4.01 -6 3.02 -6 2 C-4.02 2 -2.04 2 0 2 C0 1.34 0 0.68 0 0 Z " fill="#ECD098" transform="translate(1013,694)"/>
<path d="M0 0 C1.32 0.33 2.64 0.66 4 1 C4 1.99 4 2.98 4 4 C4.66 4 5.32 4 6 4 C6.96661363 7.12180401 6.98988909 9.52083795 6.5625 12.75 C6.46066406 13.54921875 6.35882813 14.3484375 6.25390625 15.171875 C6.12822266 16.07679688 6.12822266 16.07679688 6 17 C5.67 17 5.34 17 5 17 C4.34 12.38 3.68 7.76 3 3 C2.34 3 1.68 3 1 3 C0.67 2.01 0.34 1.02 0 0 Z " fill="#665842" transform="translate(195,584)"/>
<path d="M0 0 C11.52164009 -0.55353075 11.52164009 -0.55353075 17 3 C17 4.65 17 6.3 17 8 C15.50260417 6.73046875 14.00520833 5.4609375 12.5078125 4.19140625 C9.83806352 2.08188957 7.70256241 1.77025624 4.375 1.4375 C3.55773437 1.35371094 2.74046875 1.26992188 1.8984375 1.18359375 C1.27195312 1.12300781 0.64546875 1.06242187 0 1 C0 0.67 0 0.34 0 0 Z " fill="#645B49" transform="translate(703,453)"/>
<path d="M0 0 C1.20628008 2.33214148 2.1654738 4.49642139 3 7 C3.99 7 4.98 7 6 7 C7.6875 9 7.6875 9 9 11 C6.69 11 4.38 11 2 11 C-1.07692308 4.6 -1.07692308 4.6 -0.6875 1.5625 C-0.460625 1.046875 -0.23375 0.53125 0 0 Z " fill="#5D513D" transform="translate(1211,158)"/>
<path d="M0 0 C0.66 0.33 1.32 0.66 2 1 C2 1.66 2 2.32 2 3 C0.9275 2.79375 -0.145 2.5875 -1.25 2.375 C-4.87619096 2.0123809 -6.08291076 2.01637931 -9 4 C-9 6.64 -9 9.28 -9 12 C-9.66 12 -10.32 12 -11 12 C-11 8.7 -11 5.4 -11 2 C-7.17291493 0.19901879 -4.22146566 -0.28143104 0 0 Z " fill="#9B845F" transform="translate(1385,911)"/>
<path d="M0 0 C0.33 0 0.66 0 1 0 C1.226875 1.19625 1.45375 2.3925 1.6875 3.625 C3.03549983 9.09458204 6.06292417 12.06292417 10 16 C5.70057465 15.52228607 3.7064865 14.38310813 1 11 C-0.45556483 7.48238498 -0.07222005 3.75544273 0 0 Z " fill="#535044" transform="translate(965,850)"/>
<path d="M0 0 C2.29874686 1.72406015 3.80406685 3.0636656 4.40625 5.94140625 C4.5 8.0625 4.5 8.0625 4 12 C1.96875 13.74609375 1.96875 13.74609375 0 15 C0.08378906 14.16855469 0.16757812 13.33710937 0.25390625 12.48046875 C0.35574219 11.39378906 0.45757813 10.30710937 0.5625 9.1875 C0.66691406 8.10855469 0.77132812 7.02960937 0.87890625 5.91796875 C1.17577609 2.93517546 1.17577609 2.93517546 0 0 Z " fill="#3C3E3B" transform="translate(992,845)"/>
<path d="M0 0 C2.97 0.99 5.94 1.98 9 3 C8.01 3.99 7.02 4.98 6 6 C3.3125 5.6875 3.3125 5.6875 1 5 C0.67 3.35 0.34 1.7 0 0 Z " fill="#293236" transform="translate(815,714)"/>
<path d="M0 0 C0.66 0 1.32 0 2 0 C2 0.66 2 1.32 2 2 C2.639375 2.12375 3.27875 2.2475 3.9375 2.375 C4.618125 2.58125 5.29875 2.7875 6 3 C7.39935013 5.79870027 7.25265405 7.90498792 7 11 C6.01 11.99 5.02 12.98 4 14 C4.33 10.7 4.66 7.4 5 4 C3.68 3.67 2.36 3.34 1 3 C0.67 2.01 0.34 1.02 0 0 Z " fill="#A88E66" transform="translate(1015,689)"/>
<path d="M0 0 C2 2 2 2 2.1953125 4.1640625 C2.17210937 4.97617187 2.14890625 5.78828125 2.125 6.625 C2.10695312 7.44226563 2.08890625 8.25953125 2.0703125 9.1015625 C2.03550781 10.04128906 2.03550781 10.04128906 2 11 C1.01 11.33 0.02 11.66 -1 12 C-1 12.66 -1 13.32 -1 14 C-1.66 14 -2.32 14 -3 14 C-2.5359375 12.7625 -2.5359375 12.7625 -2.0625 11.5 C-0.88122417 7.60873845 -0.41775832 4.03833047 0 0 Z " fill="#8C7450" transform="translate(197,594)"/>
<path d="M0 0 C3.37885612 -0.28526928 6.63291991 -0.46087248 10 0 C12.125 2.5 12.125 2.5 13 5 C11.68 4.67 10.36 4.34 9 4 C9 3.34 9 2.68 9 2 C4.545 2.495 4.545 2.495 0 3 C0 2.01 0 1.02 0 0 Z " fill="#AC9268" transform="translate(974,838)"/>
<path d="M0 0 C2.69600373 0.9885347 3.80558649 1.65977636 5.25 4.1875 C6.14461507 7.54230653 6.13556977 10.54297098 6 14 C5.34 14 4.68 14 4 14 C3.96261719 13.37351562 3.92523438 12.74703125 3.88671875 12.1015625 C3.82097656 11.28429687 3.75523437 10.46703125 3.6875 9.625 C3.62949219 8.81289063 3.57148438 8.00078125 3.51171875 7.1640625 C3.17009472 4.62078662 3.17009472 4.62078662 0 3 C0 2.01 0 1.02 0 0 Z " fill="#A48F68" transform="translate(335,768)"/>
<path d="M0 0 C0.66 0.66 1.32 1.32 2 2 C1.33613281 1.97679687 0.67226562 1.95359375 -0.01171875 1.9296875 C-6.72861016 1.76375695 -6.72861016 1.76375695 -13 4 C-12.67 3.01 -12.34 2.02 -12 1 C-7.67114865 -1.01341923 -4.59540744 -1.25329294 0 0 Z " fill="#A68F65" transform="translate(1329,681)"/>
<path d="M0 0 C0.99 0.66 1.98 1.32 3 2 C3 5 3 5 1.5625 6.5 C1.046875 6.995 0.53125 7.49 0 8 C-0.33 8.99 -0.66 9.98 -1 11 C-3.31 10.67 -5.62 10.34 -8 10 C-6.30752159 8.87168106 -4.60561322 7.75640817 -2.875 6.6875 C-0.52807654 4.57526889 -0.33293317 3.07963184 0 0 Z " fill="#554E3F" transform="translate(242,198)"/>
<path d="M0 0 C0.33 0.99 0.66 1.98 1 3 C-1.84144205 7.61734333 -5.32132083 9.57068581 -10 12 C-8.90777974 8.72333923 -8.17281146 8.08390769 -5.5625 6 C-3.11225368 4.03571068 -1.78619422 2.67929132 0 0 Z " fill="#3D3C34" transform="translate(1242,161)"/>
<path d="M0 0 C2 3 2 3 2 6 C-1.3 6.33 -4.6 6.66 -8 7 C-8.33 5.02 -8.66 3.04 -9 1 C-8.67 1.99 -8.34 2.98 -8 4 C-5.69 4 -3.38 4 -1 4 C-0.67 2.68 -0.34 1.36 0 0 Z " fill="#E7C88E" transform="translate(1015,695)"/>
<path d="M0 0 C0.99 0.33 1.98 0.66 3 1 C-2.25714286 5.0345515 -2.25714286 5.0345515 -5.6875 4.875 C-8 4 -8 4 -11 2 C-10.06027344 1.90912109 -10.06027344 1.90912109 -9.1015625 1.81640625 C-7.87566406 1.69072266 -7.87566406 1.69072266 -6.625 1.5625 C-5.81289062 1.48128906 -5.00078125 1.40007813 -4.1640625 1.31640625 C-1.95727195 1.10909886 -1.95727195 1.10909886 0 0 Z " fill="#353B3A" transform="translate(1152,536)"/>
<path d="M0 0 C1 3 1 3 0 6 C-4.65537393 6.83796731 -8.37078475 7.0161692 -13 6 C-13 5.67 -13 5.34 -13 5 C-12.09507813 4.96132813 -12.09507813 4.96132813 -11.171875 4.921875 C-5.89464661 4.59668017 -5.89464661 4.59668017 -1.4375 1.9375 C-0.963125 1.298125 -0.48875 0.65875 0 0 Z " fill="#4B493F" transform="translate(1336,700)"/>
<path d="M0 0 C0.66 0.33 1.32 0.66 2 1 C0.0373772 3.04795423 -1.4277307 3.94976638 -4.26953125 4.19921875 C-6.51954383 4.18858877 -8.75385562 4.12958525 -11 4 C-10.34 3.01 -9.68 2.02 -9 1 C-7.08984375 0.7421875 -7.08984375 0.7421875 -4.9375 0.875 C-3.638125 0.91625 -2.33875 0.9575 -1 1 C-0.67 0.67 -0.34 0.34 0 0 Z " fill="#2D3536" transform="translate(717,479)"/>
<path d="M0 0 C0.33 0.99 0.66 1.98 1 3 C-3.625 6 -3.625 6 -7 6 C-7.99 5.67 -8.98 5.34 -10 5 C-10.33 4.01 -10.66 3.02 -11 2 C-9.01432292 2.06510417 -7.02864583 2.13020833 -5.04296875 2.1953125 C-2.68640281 2.13254462 -2.68640281 2.13254462 0 0 Z " fill="#282F33" transform="translate(1399,307)"/>
<path d="M0 0 C1 7.625 1 7.625 1 11 C-4 5.5 -4 5.5 -4 1 C-2 0 -2 0 0 0 Z " fill="#393A36" transform="translate(1385,297)"/>
<path d="M0 0 C2.40346379 2.40346379 2.32083747 3.13900195 2.375 6.4375 C2.40335938 7.21996094 2.43171875 8.00242187 2.4609375 8.80859375 C2 11 2 11 -2 14 C-1.34 9.38 -0.68 4.76 0 0 Z " fill="#4B473A" transform="translate(204,596)"/>
<path d="M0 0 C-2.85478326 1.90318884 -4.41941308 2.4619099 -7.6875 3.125 C-8.49574219 3.29257812 -9.30398438 3.46015625 -10.13671875 3.6328125 C-10.75160156 3.75398438 -11.36648438 3.87515625 -12 4 C-11.1875 2.0625 -11.1875 2.0625 -10 0 C-6.30581799 -1.231394 -3.7943739 -0.64432764 0 0 Z " fill="#B19365" transform="translate(410,348)"/>
<path d="M0 0 C1.60875 0.2784375 1.60875 0.2784375 3.25 0.5625 C6.40391546 0.9304568 8.09818492 1.04465343 11 0 C10 3 10 3 8 4 C5.6670134 4.04022391 3.33293334 4.04320247 1 4 C0.67 2.68 0.34 1.36 0 0 Z " fill="#837053" transform="translate(1376,923)"/>
<path d="M0 0 C0.79921875 0.01804687 1.5984375 0.03609375 2.421875 0.0546875 C3.02515625 0.07789063 3.6284375 0.10109375 4.25 0.125 C4.25 0.455 4.25 0.785 4.25 1.125 C3.56292969 1.21136719 2.87585938 1.29773438 2.16796875 1.38671875 C-3.59959611 2.07823048 -3.59959611 2.07823048 -7.75 5.75 C-8.08 6.53375 -8.41 7.3175 -8.75 8.125 C-9.41 8.125 -10.07 8.125 -10.75 8.125 C-9.27631579 2.47587719 -9.27631579 2.47587719 -6.96875 0.9375 C-4.48584421 0.02826689 -2.63420851 -0.07747672 0 0 Z " fill="#A28962" transform="translate(707.75,453.875)"/>
<path d="M0 0 C0.66 0.33 1.32 0.66 2 1 C1.1875 3.9375 1.1875 3.9375 0 7 C-0.99 7.33 -1.98 7.66 -3 8 C-3.1875 5.125 -3.1875 5.125 -3 2 C-2.01 1.34 -1.02 0.68 0 0 Z " fill="#CAAA74" transform="translate(629,885)"/>
<path d="M0 0 C0.66 0.33 1.32 0.66 2 1 C2 1.99 2 2.98 2 4 C2.66 4 3.32 4 4 4 C2.89131683 6.21736634 1.50559539 8.03617993 0 10 C-0.99 9.67 -1.98 9.34 -3 9 C-2.34 8.01 -1.68 7.02 -1 6 C-0.60986284 4.0103005 -0.26797351 2.00980131 0 0 Z " fill="#2F3437" transform="translate(1148,861)"/>
<path d="M0 0 C0.33 0.66 0.66 1.32 1 2 C0.40832031 1.98839844 -0.18335938 1.97679687 -0.79296875 1.96484375 C-5.00231785 1.91677614 -8.8922333 1.93993117 -13 3 C-9.42577399 -1.32669465 -5.1969666 -1.58796202 0 0 Z " fill="#95815F" transform="translate(526,616)"/>
<path d="M0 0 C0 0.66 0 1.32 0 2 C-1.2375 2.144375 -2.475 2.28875 -3.75 2.4375 C-6.56504499 2.78688502 -9.2701497 3.20379366 -12 4 C-12.33 3.01 -12.66 2.02 -13 1 C-11.58366664 0.83052421 -10.16691467 0.66454493 -8.75 0.5 C-7.56664062 0.36078125 -7.56664062 0.36078125 -6.359375 0.21875 C-4 0 -4 0 0 0 Z " fill="#3E413B" transform="translate(716,478)"/>
<path d="M0 0 C4.75 0.875 4.75 0.875 7 2 C7 4.31 7 6.62 7 9 C6.01 9.495 6.01 9.495 5 10 C5 8.02 5 6.04 5 4 C4.34 4 3.68 4 3 4 C3 3.01 3 2.02 3 1 C2.01 0.67 1.02 0.34 0 0 Z " fill="#C7A773" transform="translate(407,349)"/>
<path d="M0 0 C0.99 0.33 1.98 0.66 3 1 C2.34 2.65 1.68 4.3 1 6 C0.34 6 -0.32 6 -1 6 C-1.33 7.32 -1.66 8.64 -2 10 C-2.1953125 3.9453125 -2.1953125 3.9453125 -2 2 C-1.34 1.34 -0.68 0.68 0 0 Z " fill="#B89F71" transform="translate(1387,295)"/>
<path d="M0 0 C0.99 1.485 0.99 1.485 2 3 C1.01 2.67 0.02 2.34 -1 2 C-2.72795352 1.93197033 -4.45835365 1.91504355 -6.1875 1.9375 C-7.08855469 1.94652344 -7.98960937 1.95554687 -8.91796875 1.96484375 C-9.94857422 1.98224609 -9.94857422 1.98224609 -11 2 C-11 1.01 -11 0.02 -11 -1 C-6.98846379 -2.60461448 -3.92685226 -1.45438973 0 0 Z " fill="#3A3F3C" transform="translate(826,699)"/>
<path d="M0 0 C0 3.92896395 -1.00299863 7.19893228 -2 11 C-2.66 10.67 -3.32 10.34 -4 10 C-4.25 7.25 -4.25 7.25 -4 4 C-2 1.625 -2 1.625 0 0 Z " fill="#A99268" transform="translate(1139,517)"/>
<path d="M0 0 C-0.33 0.99 -0.66 1.98 -1 3 C-1.56203125 2.68289063 -2.1240625 2.36578125 -2.703125 2.0390625 C-5.15196317 0.93125475 -7.08387855 0.61024601 -9.75 0.375 C-10.54921875 0.30023437 -11.3484375 0.22546875 -12.171875 0.1484375 C-12.77515625 0.09945312 -13.3784375 0.05046875 -14 0 C-14 -0.33 -14 -0.66 -14 -1 C-12.23086176 -1.22226864 -10.45955629 -1.42733873 -8.6875 -1.625 C-7.70136719 -1.74101563 -6.71523438 -1.85703125 -5.69921875 -1.9765625 C-3 -2 -3 -2 0 0 Z " fill="#4A4A40" transform="translate(340,767)"/>
<path d="M0 0 C1.32 0.33 2.64 0.66 4 1 C3.02433888 2.16959987 2.044375 3.33561177 1.0625 4.5 C0.51722656 5.1496875 -0.02804688 5.799375 -0.58984375 6.46875 C-1.05519531 6.9740625 -1.52054688 7.479375 -2 8 C-2.33 8 -2.66 8 -3 8 C-3 6.35 -3 4.7 -3 3 C-2.34 3 -1.68 3 -1 3 C-0.67 2.01 -0.34 1.02 0 0 Z " fill="#826A48" transform="translate(166,582)"/>
<path d="M0 0 C0.33 0 0.66 0 1 0 C1.78774617 8.03501094 1.78774617 8.03501094 -1.5 12.0625 C-2.325 12.701875 -3.15 13.34125 -4 14 C-4.66 13.67 -5.32 13.34 -6 13 C-5.195625 12.34 -4.39125 11.68 -3.5625 11 C-0.24851076 7.12020772 -0.25422975 4.99985175 0 0 Z " fill="#A78E66" transform="translate(720,461)"/>
<path d="M0 0 C0.66 0 1.32 0 2 0 C1.67 1.98 1.34 3.96 1 6 C-0.65 6 -2.3 6 -4 6 C-1.125 1.125 -1.125 1.125 0 0 Z " fill="#313738" transform="translate(415,362)"/>
<path d="M0 0 C1.32 0.33 2.64 0.66 4 1 C3.34 3.64 2.68 6.28 2 9 C-0.29013653 5.5647952 -0.17842973 4.014669 0 0 Z " fill="#E0C48F" transform="translate(923,264)"/>
<path d="M0 0 C0.33 0 0.66 0 1 0 C1 1.98 1 3.96 1 6 C0.34 6 -0.32 6 -1 6 C-1 6.66 -1 7.32 -1 8 C-2.32 8 -3.64 8 -5 8 C-5 6 -5 6 -3.625 4.5625 C-3.08875 4.046875 -2.5525 3.53125 -2 3 C-1.34 2.01 -0.68 1.02 0 0 Z " fill="#94774E" transform="translate(1234,156)"/>
<path d="M0 0 C0 0.33 0 0.66 0 1 C-1.0725 1.268125 -2.145 1.53625 -3.25 1.8125 C-6.56508928 2.86227827 -8.43877646 3.74612328 -11 6 C-10.625 3.5625 -10.625 3.5625 -10 1 C-6.78548731 -0.60725635 -3.56387464 -0.05748185 0 0 Z " fill="#7F6646" transform="translate(1226,138)"/>
<path d="M0 0 C2.97 0.33 5.94 0.66 9 1 C8.67 1.99 8.34 2.98 8 4 C4.7 3.67 1.4 3.34 -2 3 C-1.34 2.01 -0.68 1.02 0 0 Z " fill="#403F37" transform="translate(1224,131)"/>
<path d="M0 0 C0 0.99 0 1.98 0 3 C-1 4 -1 4 -2.84765625 4.09765625 C-4.8984375 4.06510417 -6.94921875 4.03255208 -9 4 C-9.33 3.34 -9.66 2.68 -10 2 C-6.7 1.34 -3.4 0.68 0 0 Z " fill="#837358" transform="translate(826,711)"/>
<path d="M0 0 C-0.99 1.485 -0.99 1.485 -2 3 C-5.625 3.1875 -5.625 3.1875 -9 3 C-9.33 2.34 -9.66 1.68 -10 1 C-6.61981469 -0.04005702 -3.5219721 -0.08004482 0 0 Z " fill="#DBB87D" transform="translate(1017,701)"/>
<path d="M0 0 C0 3.59857954 -0.95830515 5.09451118 -3 8 C-3.66 8 -4.32 8 -5 8 C-5.33 8.99 -5.66 9.98 -6 11 C-5.55530671 5.96014269 -3.28656638 3.62365012 0 0 Z " fill="#CBA56C" transform="translate(169,583)"/>
<path d="M0 0 C2.76223278 2.76223278 2.57856291 5.20706617 3 9 C1.68 8.34 0.36 7.68 -1 7 C-1 3 -1 3 0 0 Z " fill="#E0C186" transform="translate(1389,297)"/>
<path d="M0 0 C-3.20380017 2.13586678 -4.01939967 2.23132175 -7.6875 2.125 C-8.89986328 2.09792969 -8.89986328 2.09792969 -10.13671875 2.0703125 C-11.05904297 2.03550781 -11.05904297 2.03550781 -12 2 C-11.67 1.34 -11.34 0.68 -11 0 C-7.08234111 -0.81309902 -3.82092412 -1.37553268 0 0 Z " fill="#796345" transform="translate(1232,165)"/>
<path d="M0 0 C1.98 0.99 1.98 0.99 4 2 C4.1875 4.375 4.1875 4.375 4 7 C3.01 7.66 2.02 8.32 1 9 C0.67 6.03 0.34 3.06 0 0 Z " fill="#A98E65" transform="translate(634,885)"/>
<path d="M0 0 C0 0.33 0 0.66 0 1 C-2.31 1 -4.62 1 -7 1 C-7 1.99 -7 2.98 -7 4 C-8.65 4.33 -10.3 4.66 -12 5 C-12 3 -12 3 -10.5 1.375 C-6.87989192 -0.61605945 -4.10006991 -0.2050035 0 0 Z " fill="#7F745A" transform="translate(981,837)"/>
<path d="M0 0 C3.875 1.875 3.875 1.875 5 3 C6.34747084 3.23075082 7.70377565 3.41153063 9.0625 3.5625 C10.361875 3.706875 11.66125 3.85125 13 4 C13 4.33 13 4.66 13 5 C11.741875 5.185625 10.48375 5.37125 9.1875 5.5625 C8.12595703 5.71912109 8.12595703 5.71912109 7.04296875 5.87890625 C5 6 5 6 2 5 C0.8125 2.4375 0.8125 2.4375 0 0 Z " fill="#363835" transform="translate(511,630)"/>
<path d="M0 0 C4.75 0.75 4.75 0.75 7 3 C7.1953125 5.3828125 7.1953125 5.3828125 7.125 8.125 C7.10695313 9.03507813 7.08890625 9.94515625 7.0703125 10.8828125 C7.04710937 11.58148437 7.02390625 12.28015625 7 13 C6.67 13 6.34 13 6 13 C5.98582031 12.39671875 5.97164062 11.7934375 5.95703125 11.171875 C5.68721054 5.71123416 5.68721054 5.71123416 2.4375 1.4375 C1.633125 0.963125 0.82875 0.48875 0 0 Z " fill="#4F4E45" transform="translate(1153,513)"/>
<path d="M0 0 C0.268125 0.598125 0.53625 1.19625 0.8125 1.8125 C1.98493467 3.97224808 3.19369282 5.35790256 5 7 C4.67 7.99 4.34 8.98 4 10 C1.4375 7.8125 1.4375 7.8125 -1 5 C-0.8125 2.1875 -0.8125 2.1875 0 0 Z " fill="#E1BF82" transform="translate(698,464)"/>
<path d="M0 0 C3.3 0.33 6.6 0.66 10 1 C9.67 1.99 9.34 2.98 9 4 C6.36 3.67 3.72 3.34 1 3 C0.67 2.01 0.34 1.02 0 0 Z " fill="#313839" transform="translate(973,866)"/>
<path d="M0 0 C0.66 0.66 1.32 1.32 2 2 C-0.64 3.98 -3.28 5.96 -6 8 C-5.8125 5.6875 -5.8125 5.6875 -5 3 C-2.4375 1.1875 -2.4375 1.1875 0 0 Z " fill="#2D3436" transform="translate(342,782)"/>
<path d="M0 0 C2.97 0 5.94 0 9 0 C9 0.99 9 1.98 9 3 C6.03 2.67 3.06 2.34 0 2 C0 1.34 0 0.68 0 0 Z " fill="#CFAD74" transform="translate(326,768)"/>
<path d="M0 0 C0 0.33 0 0.66 0 1 C-4.455 1.495 -4.455 1.495 -9 2 C-8.67 1.01 -8.34 0.02 -8 -1 C-4.37673261 -2.2077558 -3.35853631 -1.54311128 0 0 Z " fill="#333839" transform="translate(1014,685)"/>
<path d="M0 0 C0.66 0 1.32 0 2 0 C0.515 5.445 0.515 5.445 -1 11 C-1.33 11 -1.66 11 -2 11 C-2 8.03 -2 5.06 -2 2 C-1.34 2 -0.68 2 0 2 C0 1.34 0 0.68 0 0 Z " fill="#5E5644" transform="translate(696,458)"/>
<path d="M0 0 C0.99 0.33 1.98 0.66 3 1 C3 1.66 3 2.32 3 3 C-0.71973879 5.84450614 -3.37390802 6.3227506 -8 6 C-8 5.67 -8 5.34 -8 5 C-7.05125 4.731875 -6.1025 4.46375 -5.125 4.1875 C-1.74732727 3.25013412 -1.74732727 3.25013412 0 0 Z " fill="#544B3D" transform="translate(1398,304)"/>
<path d="M0 0 C4.455 1.98 4.455 1.98 9 4 C9 4.33 9 4.66 9 5 C5.6875 5.25 5.6875 5.25 2 5 C0.0625 3 0.0625 3 -1 1 C-0.67 0.67 -0.34 0.34 0 0 Z " fill="#DEC18A" transform="translate(926,272)"/>
<path d="M0 0 C1.33454536 2.1980747 2.02787435 3.52613603 1.875 6.125 C0.73160273 8.575137 -0.53117594 9.04432617 -3 10 C-3 9.01 -3 8.02 -3 7 C-2.01 6.67 -1.02 6.34 0 6 C0 4.02 0 2.04 0 0 Z " fill="#333735" transform="translate(245,197)"/>
<path d="M0 0 C2.97 0.495 2.97 0.495 6 1 C5.67 1.99 5.34 2.98 5 4 C2.69 4 0.38 4 -2 4 C-1.34 2.68 -0.68 1.36 0 0 Z " fill="#333635" transform="translate(232,189)"/>
<path d="M0 0 C-0.66 1.32 -1.32 2.64 -2 4 C-2.99 4 -3.98 4 -5 4 C-5.33 4.99 -5.66 5.98 -6 7 C-6.33 6.34 -6.66 5.68 -7 5 C-6.25 2.9375 -6.25 2.9375 -5 1 C-2 0 -2 0 0 0 Z " fill="#363C3B" transform="translate(1005,687)"/>
<path d="M0 0 C0.56203125 0.14308594 1.1240625 0.28617188 1.703125 0.43359375 C4.04545453 1.01120902 6.39417659 1.54283307 8.75 2.0625 C9.54921875 2.23910156 10.3484375 2.41570312 11.171875 2.59765625 C11.77515625 2.73042969 12.3784375 2.86320313 13 3 C13 3.33 13 3.66 13 4 C4.80743982 4.63019694 4.80743982 4.63019694 1.4375 2 C0.7259375 1.01 0.7259375 1.01 0 0 Z " fill="#D9B87D" transform="translate(1216,160)"/>
<path d="M0 0 C1.98 0.66 3.96 1.32 6 2 C6 1.34 6 0.68 6 0 C7.32 0.33 8.64 0.66 10 1 C8 3 8 3 4.375 3.125 C3.26125 3.08375 2.1475 3.0425 1 3 C0.67 2.01 0.34 1.02 0 0 Z " fill="#776951" transform="translate(1137,868)"/>
<path d="M0 0 C2 3 2 3 1.875 5.0625 C1 7 1 7 -3 9 C-2.01 6.03 -1.02 3.06 0 0 Z " fill="#29343A" transform="translate(1023,697)"/>
<path d="M0 0 C0.66 0.66 1.32 1.32 2 2 C-0.31 2.66 -2.62 3.32 -5 4 C-5.66 3.01 -6.32 2.02 -7 1 C-5.5459375 1.0309375 -5.5459375 1.0309375 -4.0625 1.0625 C-1.12534105 1.35618499 -1.12534105 1.35618499 0 0 Z " fill="#CBA770" transform="translate(523,627)"/>
<path d="M0 0 C0.33 0.66 0.66 1.32 1 2 C-0.65 3.65 -2.3 5.3 -4 7 C-4.66 6.34 -5.32 5.68 -6 5 C-5.34 5 -4.68 5 -4 5 C-3.67 4.01 -3.34 3.02 -3 2 C-2.01 1.34 -1.02 0.68 0 0 Z " fill="#917751" transform="translate(193,608)"/>
<path d="M0 0 C1.485 0.99 1.485 0.99 3 2 C2.67 3.98 2.34 5.96 2 8 C1.34 8 0.68 8 0 8 C0 5.36 0 2.72 0 0 Z " fill="#474137" transform="translate(1399,297)"/>
<path d="M0 0 C0.99 0 1.98 0 3 0 C3 1.65 3 3.3 3 5 C1.68 5 0.36 5 -1 5 C-0.67 3.35 -0.34 1.7 0 0 Z " fill="#E0C086" transform="translate(239,198)"/>
<path d="M0 0 C3.63 0.33 7.26 0.66 11 1 C9.68 1.99 8.36 2.98 7 4 C4.69 3.01 2.38 2.02 0 1 C0 0.67 0 0.34 0 0 Z " fill="#293032" transform="translate(1375,926)"/>
<path d="M0 0 C0.99 0.33 1.98 0.66 3 1 C3 1.66 3 2.32 3 3 C4.32 3.33 5.64 3.66 7 4 C7 4.66 7 5.32 7 6 C5.1875 5.8125 5.1875 5.8125 3 5 C1.25 2.4375 1.25 2.4375 0 0 Z " fill="#8B7857" transform="translate(969,859)"/>
<path d="M0 0 C1.75098126 2.62647188 3.38731308 5.28775382 5 8 C4.01 8.495 4.01 8.495 3 9 C3 8.34 3 7.68 3 7 C2.01 7 1.02 7 0 7 C0 4.69 0 2.38 0 0 Z " fill="#2C3133" transform="translate(139,838)"/>
<path d="M0 0 C0.268125 0.5775 0.53625 1.155 0.8125 1.75 C2.01719859 4.0325868 3.40798115 5.9737942 5 8 C4.01 8.33 3.02 8.66 2 9 C-0.29013653 5.5647952 -0.17842973 4.014669 0 0 Z " fill="#3E413B" transform="translate(811,706)"/>
<path d="M0 0 C2.5654594 2.5654594 2.54046087 4.47686668 3 8 C1.68 7.34 0.36 6.68 -1 6 C-0.67 4.02 -0.34 2.04 0 0 Z " fill="#323A3B" transform="translate(1313,695)"/>
<path d="M0 0 C0.33 0.66 0.66 1.32 1 2 C0.01 2.495 0.01 2.495 -1 3 C-2.13350534 5.01669827 -2.13350534 5.01669827 -3 7 C-3.66 7 -4.32 7 -5 7 C-5 5.68 -5 4.36 -5 3 C-2.5 1.25 -2.5 1.25 0 0 Z " fill="#2C3537" transform="translate(1315,681)"/>
<path d="M0 0 C0.66 0.33 1.32 0.66 2 1 C-0.3125 3.5 -0.3125 3.5 -3 6 C-3.99 6 -4.98 6 -6 6 C-4.98545548 3.4636387 -4.3146444 2.20648539 -2 0.6875 C-1.34 0.460625 -0.68 0.23375 0 0 Z " fill="#39403F" transform="translate(1140,513)"/>
<path d="M0 0 C-4.75 3 -4.75 3 -7 3 C-7 3.99 -7 4.98 -7 6 C-7.66 5.67 -8.32 5.34 -9 5 C-5.28508772 -1.58552632 -5.28508772 -1.58552632 0 0 Z " fill="#353A38" transform="translate(405,344)"/>
<path d="M0 0 C2.64 0 5.28 0 8 0 C7.67 0.66 7.34 1.32 7 2 C3.9375 2.625 3.9375 2.625 1 3 C0.67 2.01 0.34 1.02 0 0 Z " fill="#313536" transform="translate(925,281)"/>
</svg>
